<?xml version="1.0" encoding="UTF-8" standalone="no"?>
<!-- Created with Inkscape (http://www.inkscape.org/) -->

<svg
   xmlns:dc="http://purl.org/dc/elements/1.1/"
   xmlns:cc="http://creativecommons.org/ns#"
   xmlns:rdf="http://www.w3.org/1999/02/22-rdf-syntax-ns#"
   xmlns:svg="http://www.w3.org/2000/svg"
   xmlns="http://www.w3.org/2000/svg"
   xmlns:xlink="http://www.w3.org/1999/xlink"
   xmlns:sodipodi="http://sodipodi.sourceforge.net/DTD/sodipodi-0.dtd"
   xmlns:inkscape="http://www.inkscape.org/namespaces/inkscape"
   width="1920px"
   height="1080px"
   viewBox="0 0 1920 1080"
   version="1.1"
   id="SVGRoot"
   sodipodi:docname="medical.svg"
   inkscape:version="0.92.5 (2060ec1f9f, 2020-04-08)">
  <defs
     id="defs3309">
    <linearGradient
       inkscape:collect="always"
       xlink:href="#ac3cc305-f6db-42f4-bbbd-32121ee27a74-207"
       id="linearGradient764"
       gradientUnits="userSpaceOnUse"
       x1="403.57001"
       y1="833.5"
       x2="403.57001"
       y2="218.16"
       gradientTransform="matrix(1.1963414,0,0,1.2894184,501.35403,-42.500401)" />
    <linearGradient
       id="ac3cc305-f6db-42f4-bbbd-32121ee27a74-207"
       x1="403.57001"
       y1="833.5"
       x2="403.57001"
       y2="218.16"
       gradientUnits="userSpaceOnUse">
      <stop
         offset="0"
         stop-color="gray"
         stop-opacity="0.25"
         id="stop414" />
      <stop
         offset="0.54"
         stop-color="gray"
         stop-opacity="0.12"
         id="stop416" />
      <stop
         offset="1"
         stop-color="gray"
         stop-opacity="0.1"
         id="stop418" />
    </linearGradient>
    <linearGradient
       id="ad14f186-b27f-416c-b629-0bafa2f1236e-208"
       x1="940.66998"
       y1="825.71997"
       x2="940.66998"
       y2="263.72"
       xlink:href="#ac3cc305-f6db-42f4-bbbd-32121ee27a74-207"
       gradientTransform="matrix(1.1963414,0,0,1.2894184,501.35403,-42.500401)" />
  </defs>
  <sodipodi:namedview
     id="base"
     pagecolor="#ffffff"
     bordercolor="#666666"
     borderopacity="1.0"
     inkscape:pageopacity="0.0"
     inkscape:pageshadow="2"
     inkscape:zoom="0.7"
     inkscape:cx="672.90517"
     inkscape:cy="386.27334"
     inkscape:document-units="px"
     inkscape:current-layer="layer1"
     showgrid="false"
     inkscape:window-width="1848"
     inkscape:window-height="1009"
     inkscape:window-x="72"
     inkscape:window-y="34"
     inkscape:window-maximized="1" />
  <metadata
     id="metadata3312">
    <rdf:RDF>
      <cc:Work
         rdf:about="">
        <dc:format>image/svg+xml</dc:format>
        <dc:type
           rdf:resource="http://purl.org/dc/dcmitype/StillImage" />
      </cc:Work>
    </rdf:RDF>
  </metadata>
  <g
     inkscape:label="Layer 1"
     inkscape:groupmode="layer"
     id="layer1">
    <ellipse
       cx="997.38104"
       cy="1021.6309"
       rx="116.5715"
       ry="20.179398"
       id="ellipse426"
       style="opacity:0.1;fill:#cc491d;stroke-width:1.24200833" />
    <ellipse
       cx="1631.0472"
       cy="1022.1984"
       rx="145.46313"
       ry="20.179398"
       id="ellipse428"
       style="opacity:0.1;fill:#cc491d;stroke-width:1.24200833" />
    <path
       d="M 574.42654,469.17951 H 695.84325 V 647.54477 H 583.3153 c -0.29903,1.83096 -0.58613,3.67483 -0.89723,5.51871 H 695.84325 V 796.911 c -0.20346,-0.0644 -0.3828,-0.14179 -0.57433,-0.21921 -3.20611,-1.36679 -6.38835,-2.81093 -9.57073,-4.35824 l -2.03371,-0.99285 q -4.78543,-2.437 -9.57073,-5.15767 c -1.11262,-0.63181 -2.22524,-1.28941 -3.32579,-1.95992 a 199.09513,214.58501 0 0 1 -47.7101,-40.17827 c -0.4068,-0.42551 -0.7896,-0.87682 -1.19639,-1.28942 -1.93814,-2.26937 -3.84023,-4.56454 -5.68266,-6.91129 l -2.03371,-2.57883 c -2.17739,-2.8754 -4.28293,-5.82817 -6.3287,-8.81962 -0.29903,-0.4384 -0.58613,-0.8768 -0.89723,-1.28943 a 178.1113,191.96863 0 0 1 -20.5771,-40.1009 c -0.16741,-0.42551 -0.3111,-0.88971 -0.46658,-1.28942 q -2.46449,-6.83392 -4.36657,-13.79679 c -0.55035,-1.94701 -1.0767,-3.86825 -1.53135,-5.89264 -0.16754,-0.59312 -0.31109,-1.17336 -0.44271,-1.75361 -6.79515,-28.58639 -7.59667,-58.2817 -7.59667,-87.77071 0,-3.44274 0,-6.89838 0,-10.31534 0,-11.92713 0.13149,-23.93162 0.32302,-35.9232 0,-3.1075 0.11929,-6.2021 0.17934,-9.32249 q 0.25131,-11.87553 0.71789,-23.75109 c 0.0718,-2.20491 0.16741,-4.39692 0.27517,-6.58893 q 0,-1.89544 0.17934,-3.79088 c 0.28723,-4.59034 0.52649,-9.14199 0.81359,-13.68074 z"
       id="path430"
       inkscape:connector-curvature="0"
       style="opacity:0.1;fill:#cc491d;stroke-width:1.24200833" />
    <path
       d="m 695.84325,270.58327 h -66.60037 a 504.85607,544.13458 0 0 1 35.42369,-52.55667 c 9.89376,-13.1005 20.33786,-25.86574 31.17668,-38.16679 z"
       id="path432"
       inkscape:connector-curvature="0"
       style="opacity:0.1;fill:#cc491d;stroke-width:1.24200833" />
    <path
       d="M 695.84325,276.10199 V 463.6608 H 574.80934 c 0,-0.54155 0.084,-1.09601 0.11929,-1.63755 0.10844,-1.48284 0.21539,-2.96567 0.33495,-4.43561 0.13149,-1.72783 0.27517,-3.46854 0.43065,-5.15767 0.15562,-1.68913 0.32302,-3.7522 0.5025,-5.62188 0.17947,-1.86964 0.34701,-3.76509 0.55034,-5.63474 0.20333,-1.86966 0.3828,-3.73932 0.5982,-5.59608 0.21526,-1.85676 0.40679,-3.73932 0.63398,-5.59608 0.17947,-1.5473 0.37087,-3.08172 0.56227,-4.629 0.27518,-2.17912 0.56228,-4.37114 0.87337,-6.53736 0,-0.32236 0.0841,-0.65761 0.13149,-0.96707 a 413.81448,446.00984 0 0 1 8.91276,-47.08956 323.10789,348.24614 0 0 1 15.01413,-47.70848 332.28382,358.13597 0 0 1 22.58682,-46.88325 z"
       id="path434"
       inkscape:connector-curvature="0"
       style="opacity:0.1;fill:#cc491d;stroke-width:1.24200833" />
    <path
       d="M 724.83062,469.16662 V 647.54477 H 984.16154 V 469.16662 Z m 0,183.88396 v 153.1829 c 1.48335,0.33526 2.95492,0.6576 4.41442,0.9284 1.98599,0.4126 3.95991,0.78653 5.98169,1.10889 0.38294,0.0644 0.77767,0.12885 1.19639,0.16763 0.7896,0.14177 1.60305,0.25788 2.39265,0.37392 1.99792,0.29657 3.98391,0.54156 5.98169,0.73497 0.94521,0.10305 1.90222,0.19343 2.85936,0.27079 l 2.30887,0.1934 v 0 c 1.25617,0.10305 2.50042,0.18053 3.7326,0.21921 0.7656,0 1.53134,0.0774 2.32094,0.10305 0.59819,0 1.19625,0 1.81844,0 0.62205,0 1.50735,0 2.26103,0 1.02885,0 2.05769,0 3.07461,0 h 1.37573 c 1.02899,0 2.05784,0 3.07462,-0.10305 h 0.0718 c 0.70596,0 1.42371,0 2.14147,-0.10305 a 5.0126704,5.4026633 0 0 0 0.59819,0 c 0.5982,0 1.1964,0 1.7706,-0.0902 h 0.41872 l 4.00777,-0.33526 c 1.31595,-0.12885 2.64383,-0.29656 3.98377,-0.45129 l 2.72774,-0.34816 a 238.6103,257.17451 0 0 0 32.83951,-7.53019 c 24.19,-7.27231 47.85365,-17.44584 72.03172,-24.89868 31.26045,-9.60614 65.79871,-14.32542 96.00633,-2.57883 V 653.05058 Z M 984.16154,270.58327 V 33.111086 A 333.38446,359.32224 0 0 0 899.90319,43.761688 C 834.23596,61.542771 775.31617,100.10927 724.83062,149.36505 v 121.20534 h 13.01622 v 5.50581 H 724.83062 V 463.6608 H 984.16154 V 276.0891 H 791.28731 v -5.50583 z m 333.09736,-80.2147 c -16.2464,-0.61892 -32.397,-6.16344 -47.0043,-14.72517 -27.9345,-16.37561 -50.2463,-41.6611 -75.1781,-63.00098 C 1143.2749,68.196163 1079.0314,41.376271 1013.1249,34.722866 V 270.58327 h 370.2078 l 0.9213,-1.04441 z m 33.7248,-6.4471 35.7586,42.29294 v -53.38193 c -11.9753,1.59888 -22.4672,5.40265 -35.7108,11.03741 z m 35.7586,660.34986 V 653.05058 h -76.1949 c -0.2034,-0.81233 -0.4068,-1.63756 -0.6461,-2.46278 0.2273,0.82522 0.4187,1.65045 0.6341,2.46278 H 1013.1728 V 791.3407 c 2.8234,2.25649 5.6108,4.62902 8.3743,7.04022 v 0 c 2.9789,2.57884 5.9219,5.29952 8.877,7.96861 l 2.9787,2.65621 c 1.4238,1.28942 2.8594,2.57883 4.307,3.79088 q 4.3068,3.76511 8.6973,7.42706 c 1.4476,1.28942 2.9311,2.4499 4.4025,3.66194 a 599.63022,646.28229 0 0 0 73.7306,51.97646 q 8.6496,5.15767 17.4547,10.07037 c 3.9119,2.15332 7.848,4.29375 11.7958,6.36972 q 8.9008,4.68059 17.9452,9.02593 v 0 a 658.9927,710.26325 0 0 0 174.6658,54.83897 q 20.0865,3.19776 40.3287,5.02872 V 844.25844 h 1.1964 z M 1013.1728,276.0891 v 187.5717 h 373.6174 V 276.0891 Z m 0,193.07752 v 178.37815 h 373.6174 V 469.16662 Z m 402.6167,-296.56625 v 59.54536 l 45.6404,-53.97505 q -22.6826,-3.94563 -45.6404,-5.63476 z m 0,296.63072 v 178.31368 h 363.3887 V 469.16662 Z m 362.0608,389.19805 1.2802,-205.37856 h -363.341 v 310.19538 a 651.68303,702.3849 0 0 0 70.2253,-0.90259 v 0 h 0.4067 q 16.7488,-1.13468 33.3421,-3.3009 h 0.2512 a 614.01025,661.78111 0 0 0 171.3161,-49.26869 m 157.917,-411.23421 c -1.3638,-3.46854 -2.7874,-6.91128 -4.2351,-10.31535 -2.7037,-6.4471 -5.5628,-12.71366 -8.5058,-18.98023 h -28.3534 v 178.30078 h 71.6847 c -0.037,-50.49363 -11.8915,-102.07037 -30.5545,-149.06968 z m -41.0943,154.57548 v 176.65032 c 20.1942,-20.8628 37.2541,-44.72992 49.5405,-72.01401 14.7747,-32.85439 21.5342,-68.42944 22.0844,-104.6621 z m 0,-235.86042 v 46.41906 h 25.6975 a 466.57314,502.87318 0 0 0 -25.6616,-46.48353 z M 1561.7073,207.59519 c -1.8902,-0.77365 -3.7805,-1.56019 -5.6827,-2.32095 a 518.75755,559.11763 0 0 0 -61.3841,-19.88283 l -69.8426,82.61305 v 0 l -1.3398,1.5344 0.8972,1.05733 h 248.576 a 531.66608,573.03045 0 0 0 -111.1881,-63.06546 z m 118.5097,68.55838 h -259.331 l -5.0965,5.02874 V 463.6608 h 44.6714 0.072 v 0 h 318.6933 v -88.38963 a 517.77656,558.06029 0 0 0 -98.9732,-99.18207 z"
       id="path436"
       inkscape:connector-curvature="0"
       style="opacity:0.1;fill:#cc491d;stroke-width:1.24200833" />
    <path
       d="M 695.84325,370.70662 V 463.6608 H 574.80934 c 0,-0.54155 0.084,-1.09601 0.11929,-1.63755 0.10844,-1.48284 0.21539,-2.96567 0.33495,-4.43561 0.13149,-1.72783 0.27517,-3.46854 0.43065,-5.15767 0.15562,-1.68913 0.32302,-3.7522 0.5025,-5.62188 0.17947,-1.86964 0.34701,-3.76509 0.55034,-5.63474 0.20333,-1.86966 0.3828,-3.73932 0.5982,-5.59608 0.21526,-1.85676 0.40679,-3.73932 0.63398,-5.59608 0.17947,-1.5473 0.37087,-3.08172 0.56227,-4.629 0.27518,-2.17912 0.56228,-4.37114 0.87337,-6.53736 0,-0.32236 0.0841,-0.65761 0.13149,-0.96707 a 413.81448,446.00984 0 0 1 8.91276,-47.08956 z"
       id="path438"
       inkscape:connector-curvature="0"
       style="opacity:0.1;fill:#cc491d;stroke-width:1.24200833" />
    <path
       d="M 574.42654,469.17951 H 695.84325 V 647.54477 H 583.3153 c -0.29903,1.83096 -0.58613,3.67483 -0.89723,5.51871 H 695.84325 V 796.911 c -0.20346,-0.0644 -0.3828,-0.14179 -0.57433,-0.21921 -3.20611,-1.36679 -6.38835,-2.81093 -9.57073,-4.35824 l -2.03371,-0.99285 q -4.78543,-2.437 -9.57073,-5.15767 c -1.11262,-0.63181 -2.22524,-1.28941 -3.32579,-1.95992 a 199.09513,214.58501 0 0 1 -47.7101,-40.17827 c -0.4068,-0.42551 -0.7896,-0.87682 -1.19639,-1.28942 -1.93814,-2.26937 -3.84023,-4.56454 -5.68266,-6.91129 l -2.03371,-2.57883 c -2.17739,-2.8754 -4.28293,-5.82817 -6.3287,-8.81962 -0.29903,-0.4384 -0.58613,-0.8768 -0.89723,-1.28943 a 178.1113,191.96863 0 0 1 -20.5771,-40.1009 c -0.16741,-0.42551 -0.3111,-0.88971 -0.46658,-1.28942 q -2.46449,-6.83392 -4.36657,-13.79679 c -0.55035,-1.94701 -1.0767,-3.86825 -1.53135,-5.89264 -0.16754,-0.59312 -0.31109,-1.17336 -0.44271,-1.75361 -6.79515,-28.58639 -7.59667,-58.2817 -7.59667,-87.77071 0,-3.44274 0,-6.89838 0,-10.31534 0,-11.92713 0.13149,-23.93162 0.32302,-35.9232 0,-3.1075 0.11929,-6.2021 0.17934,-9.32249 q 0.25131,-11.87553 0.71789,-23.75109 c 0.0718,-2.20491 0.16741,-4.39692 0.27517,-6.58893 q 0,-1.89544 0.17934,-3.79088 c 0.28723,-4.59034 0.52649,-9.14199 0.81359,-13.68074 z"
       id="path440"
       inkscape:connector-curvature="0"
       style="opacity:0.1;fill:#cc491d;stroke-width:1.24200833" />
    <polygon
       points="139.56,209.28 150.44,209.28 150.44,167.08 195.1,167.08 195.1,209.28 215.87,209.28 215.87,333.92 139.56,333.92 "
       id="polygon442"
       transform="matrix(1.1963414,0,0,1.2894184,557.86913,33.098201)"
       style="opacity:0.1;fill:#cc491d" />
    <rect
       x="724.84259"
       y="469.16663"
       width="91.280853"
       height="178.36525"
       id="rect444"
       style="opacity:0.1;fill:#cc491d;stroke-width:1.24200833" />
    <path
       d="m 254.13039,616.75521 h 118.61353 v 165.59898 a 309.48965,286.71665 0 0 1 -42.66725,8.39517 l -3.5439,0.4032 c -1.74091,0.18718 -3.46623,0.34558 -5.1761,0.50399 -1.70973,0.15833 -3.48182,0.27359 -5.20714,0.37438 h -0.54397 c -0.74609,0 -1.55439,0.0864 -2.28489,0.10071 h -0.79285 c -0.9326,0 -1.86521,0.0864 -2.79781,0.11519 v 0 c -1.32124,0.072 -2.64234,0.0864 -3.99476,0.10071 -0.57501,0 -1.11912,0 -1.69414,0 -1.33682,0 -2.65806,0 -3.99475,0 h -2.93784 c -0.79272,0 -1.55426,0 -2.37815,0 l -2.99992,-0.10071 c -1.55439,0 -3.23308,-0.15834 -4.84955,-0.25922 v 0 l -2.98448,-0.20159 -3.71483,-0.31678 c -2.61143,-0.21601 -5.20714,-0.48962 -7.7718,-0.82082 l -3.10878,-0.4032 -1.55439,-0.20159 c -2.59584,-0.3744 -5.16051,-0.7776 -7.7718,-1.23838 -1.91188,-0.3024 -3.80821,-0.67681 -5.73562,-1.03682 z"
       id="path446"
       inkscape:connector-curvature="0"
       style="opacity:0.1;fill:#cc491d;stroke-width:1.49608564" />
    <rect
       x="1311.5164"
       y="283.96744"
       width="75.273796"
       height="179.68047"
       id="rect448"
       style="opacity:0.1;fill:#cc491d;stroke-width:1.24200833" />
    <polygon
       points="380.58,416.86 546.93,416.86 546.93,452.06 629.96,452.06 629.96,338.19 692.89,338.19 692.89,476.53 380.58,476.53 "
       id="polygon450"
       transform="matrix(1.1963414,0,0,1.2894184,557.86913,33.098201)"
       style="opacity:0.1;fill:#cc491d" />
    <path
       d="m 1387.9866,844.31001 h -1.1964 v 117.01471 q -20.2182,-1.84384 -40.3167,-5.01581 A 659.02858,710.30193 0 0 1 1171.7359,901.3539 q -24.0824,-11.68214 -47.1837,-25.5047 a 602.07077,648.91272 0 0 1 -73.7426,-51.97647 q -8.805,-7.27232 -17.3828,-14.87989 c -3.9599,-3.52011 -7.8958,-7.13048 -11.8797,-10.63769 -2.7635,-2.41123 -5.5509,-4.78375 -8.3743,-7.05313 V 653.06348 h 297.3507 c -0.2035,-0.82523 -0.4068,-1.65046 -0.6222,-2.4628 0.2273,0.81234 0.4427,1.63757 0.6461,2.4628 h 76.2428 v 191.16917 c 0.4068,0.0124 0.8015,0.0516 1.1964,0.0774 z"
       id="path452"
       inkscape:connector-curvature="0"
       style="opacity:0.1;fill:#cc491d;stroke-width:1.24200833" />
    <path
       d="m 1583.1099,270.58327 h -49.0501 v -16.42718 h 21.9888 v -48.93343 q 2.8592,1.12181 5.6946,2.30807 v 46.62536 h 21.3667 z"
       id="path454"
       inkscape:connector-curvature="0"
       style="opacity:0.1;fill:#cc491d;stroke-width:1.24200833" />
    <path
       d="m 1701.2845,463.6608 h -240.7996 c 0,0 0,0 0.084,0.0644 l -0.1085,-0.0644 H 1415.789 V 283.98035 h 12.6574 v 132.81009 h 57.8431 v -78.65452 h 47.7818 v -62.03393 h 49.0501 v 62.08551 h 47.782 v 78.65452 h 70.3806 z"
       id="path456"
       inkscape:connector-curvature="0"
       style="opacity:0.1;fill:#cc491d;stroke-width:1.24200833" />
    <path
       d="m 1415.7895,469.16662 v 178.37815 h 285.495 V 469.16662 Z m 362.9939,388.34704 0.3948,-141.19131 h -77.8937 v -63.18151 h -285.495 v 310.10512 a 651.68303,702.3849 0 0 0 70.2253,-0.90259 v 0 h 0.4067 q 16.7488,-1.13468 33.3421,-3.3009 h 0.2512 a 614.01025,661.78111 0 0 0 171.3161,-49.26869"
       id="path458"
       inkscape:connector-curvature="0"
       style="opacity:0.1;fill:#cc491d;stroke-width:1.24200833" />
    <path
       d="m 1813.2261,653.06348 h 66.6003 c -0.5862,36.21975 -7.3336,71.7948 -22.0964,104.64919 -12.2864,27.29699 -29.3582,51.16413 -49.5285,72.01402 V 716.25787 h 5.0246 z"
       id="path460"
       inkscape:connector-curvature="0"
       style="opacity:0.1;fill:#cc491d;stroke-width:1.24200833" />
    <path
       d="m 1879.8623,647.54477 h -66.6362 V 498.47509 h 36.0577 c 18.663,46.99931 30.5187,98.57605 30.5785,149.06968 z"
       id="path462"
       inkscape:connector-curvature="0"
       style="opacity:0.1;fill:#cc491d;stroke-width:1.24200833" />
    <rect
       x="1346.4734"
       y="333.91946"
       width="40.328671"
       height="56.33469"
       id="rect464"
       style="opacity:0.1;fill:#cc491d;stroke-width:1.24200833" />
    <rect
       x="1346.4734"
       y="450.68924"
       width="40.328671"
       height="12.97155"
       id="rect466"
       style="opacity:0.1;fill:#cc491d;stroke-width:1.24200833" />
    <rect
       x="1346.4734"
       y="469.16663"
       width="40.328671"
       height="37.844429"
       id="rect468"
       style="opacity:0.1;fill:#cc491d;stroke-width:1.24200833" />
    <rect
       x="1346.4734"
       y="567.45898"
       width="40.328671"
       height="56.33469"
       id="rect470"
       style="opacity:0.1;fill:#cc491d;stroke-width:1.24200833" />
    <rect
       x="1346.4734"
       y="684.2287"
       width="40.328671"
       height="56.33469"
       id="rect472"
       style="opacity:0.1;fill:#cc491d;stroke-width:1.24200833" />
    <path
       d="m 1386.7902,844.23265 c 0.4068,0 0.8015,0 1.1964,0.0774 h -1.1964 v 13.0876 h -40.3167 v -56.39917 h 40.3167 z"
       id="path474"
       inkscape:connector-curvature="0"
       style="opacity:0.1;fill:#cc491d;stroke-width:1.24200833" />
    <path
       d="m 1386.7902,917.74239 v 43.51788 q -20.2182,-1.84387 -40.3167,-5.01584 v -38.50204 z"
       id="path476"
       inkscape:connector-curvature="0"
       style="opacity:0.1;fill:#cc491d;stroke-width:1.24200833" />
    <rect
       x="1013.1727"
       y="643.40576"
       width="172.83543"
       height="4.1390328"
       id="rect478"
       style="opacity:0.1;fill:#cc491d;stroke-width:1.24200833" />
    <rect
       x="1013.1727"
       y="653.0506"
       width="172.83543"
       height="15.859847"
       id="rect480"
       style="opacity:0.1;fill:#cc491d;stroke-width:1.24200833" />
    <rect
       x="1013.1727"
       y="720.89978"
       width="172.83543"
       height="25.504698"
       id="rect482"
       style="opacity:0.1;fill:#cc491d;stroke-width:1.24200833" />
    <path
       d="m 1185.9962,798.39383 v 25.5047 h -135.1866 q -8.805,-7.24654 -17.3947,-14.87989 c -3.9599,-3.52011 -7.8839,-7.13048 -11.8797,-10.62481 z"
       id="path484"
       inkscape:connector-curvature="0"
       style="opacity:0.1;fill:#cc491d;stroke-width:1.24200833" />
    <path
       d="m 1185.9962,875.87498 v 25.47892 h -14.2723 q -24.0584,-11.69505 -47.1717,-25.5176 z"
       id="path486"
       inkscape:connector-curvature="0"
       style="opacity:0.1;fill:#cc491d;stroke-width:1.24200833" />
    <rect
       x="1486.0269"
       y="486.4577"
       width="34.023952"
       height="36.671062"
       id="rect488"
       style="opacity:0.1;fill:#cc491d;stroke-width:1.24200833" />
    <rect
       x="749.34363"
       y="315.59686"
       width="34.023952"
       height="36.671062"
       id="rect490"
       style="opacity:0.1;fill:#cc491d;stroke-width:1.24200833" />
    <rect
       x="749.34363"
       y="400.77579"
       width="34.023952"
       height="36.671062"
       id="rect492"
       style="opacity:0.1;fill:#cc491d;stroke-width:1.24200833" />
    <rect
       x="749.34363"
       y="485.95486"
       width="34.023952"
       height="36.671062"
       id="rect494"
       style="opacity:0.1;fill:#cc491d;stroke-width:1.24200833" />
    <rect
       x="285.97931"
       y="525.24384"
       width="44.206146"
       height="40.953354"
       id="rect496"
       style="opacity:0.1;fill:#cc491d;stroke-width:1.49608564" />
    <rect
       x="285.97931"
       y="620.36951"
       width="44.206146"
       height="40.953354"
       id="rect498"
       style="opacity:0.1;fill:#cc491d;stroke-width:1.49608564" />
    <rect
       x="285.97931"
       y="715.49548"
       width="44.206146"
       height="40.953354"
       id="rect500"
       style="opacity:0.1;fill:#cc491d;stroke-width:1.49608564" />
    <rect
       x="1615.9137"
       y="486.4577"
       width="34.023952"
       height="36.671062"
       id="rect502"
       style="opacity:0.1;fill:#cc491d;stroke-width:1.24200833" />
    <rect
       x="1486.0269"
       y="576.91046"
       width="34.023952"
       height="36.671062"
       id="rect504"
       style="opacity:0.1;fill:#cc491d;stroke-width:1.24200833" />
    <rect
       x="1615.9137"
       y="576.91046"
       width="34.023952"
       height="36.671062"
       id="rect506"
       style="opacity:0.1;fill:#cc491d;stroke-width:1.24200833" />
    <rect
       x="1486.0269"
       y="667.35028"
       width="34.023952"
       height="36.671062"
       id="rect508"
       style="opacity:0.1;fill:#cc491d;stroke-width:1.24200833" />
    <rect
       x="1615.9137"
       y="667.35028"
       width="34.023952"
       height="36.671062"
       id="rect510"
       style="opacity:0.1;fill:#cc491d;stroke-width:1.24200833" />
    <rect
       x="1486.0269"
       y="757.80292"
       width="34.023952"
       height="36.671062"
       id="rect512"
       style="opacity:0.1;fill:#cc491d;stroke-width:1.24200833" />
    <rect
       x="1615.9137"
       y="757.80292"
       width="34.023952"
       height="36.671062"
       id="rect514"
       style="opacity:0.1;fill:#cc491d;stroke-width:1.24200833" />
    <rect
       x="1486.0269"
       y="848.25574"
       width="34.023952"
       height="36.671062"
       id="rect516"
       style="opacity:0.1;fill:#cc491d;stroke-width:1.24200833" />
    <rect
       x="1615.9137"
       y="848.25574"
       width="34.023952"
       height="36.671062"
       id="rect518"
       style="opacity:0.1;fill:#cc491d;stroke-width:1.24200833" />
    <polygon
       points="804.26,718.06 775.83,720.67 775.83,702.33 804.26,702.33 "
       id="polygon520"
       transform="matrix(1.1963414,0,0,1.2894184,557.86913,33.098201)"
       style="opacity:0.1;fill:#cc491d" />
    <path
       d="m 579.40337,417.82198 v 20.97882 h 116.43988 v -20.97882 z m 11.60444,19.66363 h -9.49889 v -18.37422 h 9.57073 z m 11.5925,0 h -9.57073 v -18.37422 h 9.57073 z m 11.56865,0 h -9.57073 v -18.37422 h 9.57073 z m 11.59264,0 h -9.5588 v -18.37422 h 9.57073 z m 11.58058,0 h -9.57073 v -18.37422 h 9.57073 z m 11.5925,0 h -9.57073 v -18.37422 h 9.57073 z m 11.59251,0 h -9.57073 v -18.37422 h 9.57073 z m 11.58057,0 h -9.57073 v -18.37422 h 9.57073 z m 11.58058,0 h -9.57073 v -18.37422 h 9.57073 z m 11.58058,0 h -9.57073 v -18.37422 h 9.57073 z"
       id="path522"
       inkscape:connector-curvature="0"
       style="opacity:0.1;fill:#cc491d;stroke-width:1.24200833" />
    <path
       d="m 579.40337,478.86304 v 20.97884 h 116.43988 v -20.97884 z m 11.60444,19.65074 h -9.49889 v -18.32263 h 9.57073 z m 11.5925,0 h -9.57073 v -18.32263 h 9.57073 z m 11.56865,0 h -9.57073 v -18.32263 h 9.57073 z m 11.59264,0 h -9.5588 v -18.32263 h 9.57073 z m 11.58058,0 h -9.57073 v -18.32263 h 9.57073 z m 11.5925,0 h -9.57073 v -18.32263 h 9.57073 z m 11.59251,0 h -9.57073 v -18.32263 h 9.57073 z m 11.58057,0 h -9.57073 v -18.32263 h 9.57073 z m 11.58058,0 h -9.57073 v -18.32263 h 9.57073 z m 11.58058,0 h -9.57073 v -18.32263 h 9.57073 z"
       id="path524"
       inkscape:connector-curvature="0"
       style="opacity:0.1;fill:#cc491d;stroke-width:1.24200833" />
    <path
       d="m 167.98986,563.0789 v 20.24594 h 121.7649 V 563.0789 Z m 12.1352,18.92932 h -9.93334 v -17.66238 h 10.00841 z m 12.1227,0 h -10.00842 v -17.66238 h 10.00842 z m 12.09767,0 h -10.00841 v -17.66238 h 10.00841 z m 12.12268,0 h -9.99589 v -17.66238 h 10.00841 z m 12.11019,0 h -10.00842 v -17.66238 h 10.00842 z m 12.12269,0 h -10.00842 v -17.66238 h 10.00842 z m 12.12268,0 h -10.0084 v -17.66238 h 10.0084 z m 12.11022,0 h -10.00845 v -17.66238 h 10.00845 z m 12.11019,0 h -10.00843 v -17.66238 h 10.00843 z m 12.11018,0 h -10.00843 v -17.66238 h 10.00843 z"
       id="path526"
       inkscape:connector-curvature="0"
       style="opacity:0.1;fill:#cc491d;stroke-width:1.24655843" />
    <path
       d="m 65.181761,558.60837 v 23.39985 H 216.46811 v -23.39985 z m 15.07733,21.94545 h -12.34165 v -20.49106 h 12.43493 z m 15.0618,0 h -12.43491 v -20.49106 h 12.43491 z m 15.030719,0 H 97.916681 v -20.49106 h 12.434929 z m 15.06179,0 h -12.41938 v -20.49106 h 12.43493 z m 15.04625,0 h -12.43491 v -20.49106 h 12.43491 z m 15.06181,0 h -12.43492 v -20.49106 h 12.43492 z m 15.0618,0 h -12.43492 v -20.49106 h 12.43492 z m 15.04626,0 H 173.1946 v -20.49106 h 12.43492 z m 15.04625,0 h -12.43492 v -20.49106 h 12.43492 z m 15.04626,0 h -12.43491 v -20.49106 h 12.43491 z"
       id="path528"
       inkscape:connector-curvature="0"
       style="opacity:0.1;fill:#cc491d;stroke-width:1.49608564" />
    <path
       d="m 65.834581,626.79195 c 0.60621,2.20319 1.29013,4.40637 2.00515,6.58077 v -5.11198 h 12.43491 v 20.47667 h -6.65268 c 0.20207,0.47522 0.40413,0.99359 0.6062,1.43999 H 216.46811 v -23.38545 z m 29.53294,21.94546 h -12.43491 v -20.47667 h 12.43491 z m 15.030719,0 H 97.963321 v -20.47667 h 12.434919 z m 15.06179,0 h -12.46601 v -20.47667 h 12.43493 z m 15.04627,0 h -12.43493 v -20.47667 h 12.43493 z m 15.06179,0 h -12.43492 v -20.47667 h 12.43492 z m 15.0618,0 h -12.43492 v -20.47667 h 12.43492 z m 15.04626,0 h -12.43492 v -20.47667 h 12.43492 z m 15.04625,0 h -12.43492 v -20.47667 h 12.43492 z m 15.04626,0 h -12.43493 v -20.47667 h 12.43493 z"
       id="path530"
       inkscape:connector-curvature="0"
       style="opacity:0.1;fill:#cc491d;stroke-width:1.49608564" />
    <path
       d="m 100.96323,694.98994 c 0.38861,0.4608 0.76165,0.97919 1.16579,1.43999 h 8.22259 v 9.83513 c 0.88598,0.97919 1.75642,1.95838 2.65796,2.87999 v -12.77272 h 12.43493 v 20.54866 h -5.03615 c 0.4974,0.47521 0.97925,0.9792 1.55436,1.44 h 94.55203 v -23.37105 z m 39.49642,21.93105 h -12.43491 v -20.46226 h 12.43491 z m 15.06181,0 h -12.43492 v -20.46226 h 12.43492 z m 15.0618,0 h -12.43492 v -20.46226 h 12.43492 z m 15.04626,0 H 173.1946 v -20.46226 h 12.43492 z m 15.04625,0 h -12.43492 v -20.46226 h 12.43492 z m 15.04626,0 h -12.43491 v -20.46226 h 12.43491 z"
       id="path532"
       inkscape:connector-curvature="0"
       style="opacity:0.1;fill:#cc491d;stroke-width:1.49608564" />
    <path
       d="m 183.95079,763.17352 c 1.41449,0.7488 2.86004,1.44 4.32115,2.18879 v -0.72 h 12.43492 v 6.47997 l 2.64242,1.13759 v -7.61756 h 12.43493 v 12.45593 a 3.8859128,3.599978 0 0 0 0.74608,0.25919 v -14.18391 z"
       id="path534"
       inkscape:connector-curvature="0"
       style="opacity:0.1;fill:#cc491d;stroke-width:1.49608564" />
    <path
       d="m 1460.4849,463.6608 v 0 h 0.072 z m -73.6947,380.55896 v 0 h 1.1964 z M 1309.9013,650.5878 c 0.2273,0.82522 0.4187,1.65045 0.6341,2.46278 v 0 c -0.1914,-0.81233 -0.3948,-1.63756 -0.6341,-2.46278 z m 150.5836,-186.96569 v 0 h 0.072 z M 737.89455,270.54459 v 5.50583 h 53.44061 v -5.50583 z m 648.89565,573.67517 v 0 h 1.1964 z M 1309.9013,650.5878 c 0.2273,0.82522 0.4187,1.65045 0.6341,2.46278 v 0 c -0.1914,-0.81233 -0.3948,-1.63756 -0.6341,-2.46278 z m 150.5836,-186.96569 v 0 h 0.072 z m -73.6947,380.55897 v 0 h 1.1964 z M 1309.9013,650.5878 c 0.2273,0.82522 0.4187,1.65045 0.6341,2.46278 v 0 c -0.1914,-0.81233 -0.3948,-1.63756 -0.6341,-2.46278 z"
       id="path536"
       inkscape:connector-curvature="0"
       style="opacity:0.1;fill:#cc491d;stroke-width:1.24200833" />
    <path
       d="m 1110.1003,522.65169 c 0,0 -4.7136,-0.70917 -4.7136,-8.11043 0,-7.40127 -3.3736,-21.22384 -3.3736,-21.22384 v 0 c 0,-0.0644 -2.919,-24.07343 -6.9508,-27.89011 -4.0316,-3.81669 -9.2118,-26.22679 -9.2118,-26.22679 0,0 -0.8853,-12.1592 -2.6918,-14.77673 -1.8064,-2.61752 -4.247,-9.02592 -7.848,-18.16791 -3.6009,-9.14197 -18.6151,-15.47301 -18.6151,-15.47301 0,0 -27.1449,-16.96874 -34.8374,-22.50035 v 0 a 11.795926,12.713666 0 0 1 -1.9501,-1.58599 c -1.3398,-1.89544 -7.1779,-1.93412 -7.1779,-1.93412 -0.6101,-4.15193 -1.1964,-8.92278 -1.3878,-13.24233 0,-0.46418 0,-0.92838 -0.06,-1.39257 a 41.393412,44.613877 0 0 0 18.1964,-24.26686 c 0.1435,-0.48998 0.2631,-1.00573 0.3947,-1.49572 a 3.8881095,4.1906099 0 0 0 2.3329,-2.26937 c 0.6939,-1.66336 0.7058,-3.61037 1.5672,-5.15769 1.0049,-1.83096 2.919,-2.81092 4.4265,-4.19061 3.8043,-3.48142 4.7853,-9.34828 4.6058,-14.68648 -0.1192,-4.31954 -0.7656,-8.67778 -0.5144,-12.97154 l 0.072,-1.08311 c 0.072,-0.6447 0.1556,-1.28942 0.2633,-1.90834 0.5861,-3.19776 1.8663,-6.215 2.584,-9.38696 0.7179,-3.17197 0.7896,-6.74366 -0.8853,-9.47723 -2.4524,-4.0101 -7.5609,-4.80953 -12.0471,-5.22214 -5.0845,-0.46421 -9.6305,0.14177 -12.8846,-4.40982 a 45.927546,49.500773 0 0 0 -5.1203,-6.66629 c -0.67,-0.6705 -7.1781,-4.95136 -7.1781,-5.23504 a 29.083059,31.345763 0 0 0 -20.27803,-1.67625 c -3.37365,1.05733 -6.5559,2.78516 -9.97739,3.64906 -7.38141,1.88256 -15.87545,-0.15473 -22.14437,4.39692 -3.49321,2.57884 -5.58683,6.67917 -7.54882,10.67639 q -2.39279,4.93847 -4.85714,9.86404 c -2.64397,5.40268 -5.33578,10.89559 -6.4484,16.8785 a 24.859974,26.794114 0 0 0 -0.43065,3.94561 v 0 0.0644 c 0,0.47709 0,0.95416 0,1.43125 v 0.60603 c 0,0.45131 0,0.8897 0.0718,1.28943 0.0718,0.39972 0.0596,0.52865 0.0962,0.79943 0.0352,0.27078 0.0962,0.87681 0.16755,1.28942 0.0718,0.41261 0.21539,1.13468 0.35894,1.70203 0.0596,0.24498 0.14355,0.47709 0.21526,0.70917 0.11929,0.43841 0.26324,0.86392 0.41872,1.28944 0.0841,0.21919 0.16755,0.45129 0.26325,0.67049 0.17947,0.45129 0.39473,0.88971 0.61012,1.28942 0.0962,0.18051 0.16741,0.34814 0.26311,0.51577 a 15.87545,17.110582 0 0 0 1.10069,1.72781 c 2.56019,3.44276 6.32871,5.63476 9.11609,8.85831 0,0.12885 0,0.25788 0,0.37393 0,0.36104 0,0.70917 0,1.07021 a 40.950765,44.136792 0 0 0 18.6391,36.03924 c 0,0.48999 0.0596,0.99286 0.084,1.48283 a 68.454655,73.780522 0 0 1 -0.13149,11.48874 5.0246338,5.4155575 0 0 0 -3.97197,-1.90836 5.7304753,6.1763143 0 0 0 -1.53121,0.14179 l -0.10845,-0.0902 v 0 0.11602 c -2.63203,0.69628 -5.87406,3.64905 -8.97253,12.04317 0,0 -9.42718,11.45004 -16.60526,10.97295 -7.17808,-0.47709 -25.35047,11.91423 -25.35047,11.91423 0,0 -17.72981,12.40421 -21.53411,25.0405 a 163.73128,176.46981 0 0 1 -7.63273,20.99174 l -21.91691,48.67555 v 0 l -4.04368,38.61807 c 0,0 2.23717,17.17506 1.79445,19.79257 -0.44258,2.61753 9.19986,26.22678 9.19986,26.22678 0,0 31.85865,60.33189 44.87487,63.42649 l 0.93314,-0.70917 a 7.632658,8.2264896 0 0 0 1.75853,0.70917 l 2.67989,-2.03729 a 29.202692,31.474704 0 0 1 -0.20347,6.80813 c -1.79445,5.95713 0.67004,44.83309 3.80444,52.45356 3.13439,7.62045 2.02177,107.53748 2.02177,107.53748 l -0.44258,8.81963 c 0,0 0,0.28366 0.10845,0.77365 l -0.10845,2.08885 0.32303,0.18052 a 23.041536,24.8342 0 0 1 -0.32303,8.39412 c -1.12455,3.86825 -1.57919,14.80252 -1.57919,14.80252 0,0 -8.96061,61.73736 -4.71359,74.14157 4.24702,12.4042 7.85991,25.99466 7.85991,25.99466 0,0 4.48627,15.47303 0.2154,18.11634 -4.27088,2.6433 -16.41386,7.0789 -13.91345,13.526 2.27309,5.9571 10.89861,21.92012 12.17877,24.25396 l -0.10844,1.22494 -1.75867,20.54033 a 23.926829,25.788369 0 0 0 2.02178,7.8398 c 1.92621,4.4743 5.67073,9.1162 12.7889,8.6133 1.19639,-0.09 2.58418,-0.245 3.92399,-0.4384 13.02815,-1.8825 29.07113,-8.1491 29.07113,-8.1491 a 11.855743,12.778137 0 0 1 -2.27309,-2.0244 v 0 a 6.5679142,7.0789071 0 0 1 -1.99778,-5.1577 c 0.1914,-3.7393 -6.30471,-21.55908 -7.91983,-25.9431 -0.25118,-0.63182 -0.3828,-0.99284 -0.3828,-0.99284 0,0 14.81067,-16.68508 12.34618,-31.47471 0,0 -16.38987,-10.31536 -10.99431,-15.97589 5.39542,-5.66056 15.038,-21.92012 15.038,-21.92012 0,0 0.44258,-60.79608 0,-69.87358 a 69.746703,75.173095 0 0 1 0.82552,-18.8642 c 0.17933,-0.94128 0.39473,-1.85676 0.62205,-2.75935 a 156.18237,168.33357 0 0 0 22.5391,1.84386 c 2.75159,0 5.551,0 8.3743,-0.18052 q 0,1.28943 0.1085,2.78516 c 0.622,15.06041 1.7825,41.46769 2.7276,51.28016 1.3399,14.06755 8.7453,51.97646 8.7453,51.97646 0,0 -14.1288,9.77378 2.4644,33.86013 0,0 0,8.72936 -1.1006,9.993 v 0 a 101.42582,109.31689 0 0 0 -2.8353,12.58472 c -0.6939,4.53874 -0.981,9.12902 0.1435,11.51452 2.6918,5.6992 18.8424,5.235 18.8424,5.235 v 0 l 0.3948,-0.077 a 23.149206,24.950246 0 0 1 17.0958,5.5574 c 6.1372,5.3123 29.4299,2.9786 42.0394,1.2894 4.9409,-0.6704 8.2428,-1.2894 8.2428,-1.2894 a 4.7853654,5.1576737 0 0 0 0.1674,-1.8568 v 0 c -0.1315,-3.3396 -2.5602,-10.6635 -19.0217,-17.20079 0,0 -15.4807,-11.21796 -15.2654,-20.99173 h -0.323 -1.7946 c 1.3041,-0.0774 2.1415,0 2.1415,0 0,0 -6.0655,-23.85425 -3.589,-25.78838 2.4764,-1.93412 -4.9409,-28.3672 -4.9409,-28.3672 0,0 -4.2469,-44.356 -4.4743,-47.4635 a 25.123169,27.077787 0 0 1 1.1125,-7.86544 l -1.1125,-24.31845 c 0,0 -0.2153,-8.08464 0,-10.71505 a 49.648168,53.510865 0 0 0 -0.5144,-6.82102 c -0.1084,-0.9026 -0.2154,-1.84388 -0.3349,-2.77227 5.8022,-1.58597 9.5706,-3.0559 9.5706,-3.0559 l -0.6699,-84.65033 c 4.9289,-10.31534 5.8381,-32.94465 5.8142,-48.99791 0,-10.31533 -0.4307,-17.9487 -0.4307,-17.9487 l 6.7355,-11.84974 c 0,0 1.5552,-14.18361 -0.9093,-17.2911 -1.0887,-1.40548 -0.5982,-2.86252 0.2991,-4.06168 a 12.513731,13.487317 0 0 1 1.4715,-1.08312 c 0,0 -0.072,-0.11602 -0.1555,-0.28366 a 11.891633,12.816819 0 0 1 1.4954,-1.14758 c 0,0 -2.3926,-3.9972 -0.2513,-5.68634 2.01,1.46993 3.8044,2.57883 5.1682,3.48142 -0.096,0.94128 -0.1914,1.48284 -0.1914,1.48284 l 0.5742,-1.28941 c 1.3161,0.79943 2.1176,1.28941 2.1176,1.28941 0,0 10.5518,-22.65508 10.3244,-25.99468 -0.2273,-3.33959 7.1781,-17.40715 7.1781,-17.40715 0,0 0.8972,-7.38837 4.9408,-10.48298 4.0437,-3.0946 3.1345,-25.51758 3.1345,-25.51758 0,0 1.1246,-11.68213 3.8163,-16.45298 2.6918,-4.77085 -2.4525,-11.20504 -2.4525,-11.20504 z m -201.89448,-9.94142 0.20333,5.40267 c -1.19639,-2.07596 -2.05769,-3.57168 -2.05769,-3.57168 z"
       id="path538"
       style="fill:url(#linearGradient764);stroke-width:1.24200833"
       inkscape:connector-curvature="0" />
    <path
       d="m 1083.7331,619.92541 -2.5842,11.86266 c 0,0 -20.6967,-11.38557 -24.4293,-25.85284 -3.7326,-14.46727 6.2449,-19.9602 6.2449,-19.9602 l 19.2851,8.80672 z"
       id="path540"
       inkscape:connector-curvature="0"
       style="fill:#ffffff;stroke-width:1.24200833" />
    <path
       d="m 1083.7331,619.92541 -2.5842,11.86266 c 0,0 -20.6967,-11.38557 -24.4293,-25.85284 -3.7326,-14.46727 6.2449,-19.9602 6.2449,-19.9602 l 19.2851,8.80672 z"
       id="path542"
       inkscape:connector-curvature="0"
       style="opacity:0.1;stroke-width:1.24200833" />
    <path
       d="m 967.58027,1023.6553 c 0,0 -19.1416,7.5817 -32.30123,8.536 -6.98668,0.5028 -10.65949,-4.1133 -12.54965,-8.5618 a 24.046462,25.91731 0 0 1 -1.97406,-7.8011 l 1.71082,-20.43722 0.90929,-10.88271 27.95851,-7.82676 3.95978,13.04892 0.37088,0.99284 c 1.59112,4.35824 7.96767,22.08773 7.77627,25.78833 a 6.532024,7.0402246 0 0 0 1.962,5.0932 11.377207,12.262369 0 0 0 2.17739,2.0503 z"
       id="path544"
       inkscape:connector-curvature="0"
       style="fill:#ffffff;stroke-width:1.24200833" />
    <path
       d="m 1098.3283,1013.2624 a 4.7853654,5.1576737 0 0 1 -0.1674,1.8439 c 0,0 -40.9388,7.3627 -49.3133,0 a 22.180169,23.905817 0 0 0 -17.2273,-5.4413 c 0,0 -15.8395,0.4642 -18.4835,-5.1577 -1.1005,-2.3596 -0.8134,-6.93701 -0.1314,-11.44998 a 101.19852,109.0719 0 0 1 2.7755,-12.52025 l 0.634,-0.54157 3.7685,-3.26221 44.1211,-1.40547 h 0.3349 c -0.2152,9.72221 14.9783,20.87568 14.9783,20.87568 16.1386,6.4471 18.5194,13.7323 18.7108,17.0589 z"
       id="path546"
       inkscape:connector-curvature="0"
       style="fill:#ffffff;stroke-width:1.24200833" />
    <path
       d="m 1098.3283,1013.2624 a 4.8810729,5.2608273 0 0 1 -0.1794,1.8439 c 0,0 -40.9268,7.3627 -49.3013,0 a 22.180169,23.905817 0 0 0 -17.2152,-5.4413 c 0,0 -15.8516,0.4642 -18.4835,-5.1577 -1.1007,-2.3724 -0.8255,-6.93701 -0.1435,-11.44998 6.1012,0.6576 15.7317,2.29517 19.5123,6.20212 5.7184,5.94426 15.4089,11.87546 21.3546,12.33966 4.6538,0.3224 32.4927,1.2765 44.456,1.6633 z"
       id="path548"
       inkscape:connector-curvature="0"
       style="opacity:0.1;stroke-width:1.24200833" />
    <path
       d="m 967.58027,1023.6553 c 0,0 -19.1416,7.5817 -32.30123,8.536 -6.98668,0.5028 -10.65949,-4.1133 -12.53772,-8.5748 4.86907,1.7666 11.62843,3.6233 15.18155,1.9213 4.21109,-2.0115 19.14146,-3.3138 27.51593,-3.8682 a 11.783963,12.700772 0 0 0 2.14147,1.9857 z"
       id="path550"
       inkscape:connector-curvature="0"
       style="opacity:0.1;stroke-width:1.24200833" />
    <path
       d="m 995.98136,412.66429 c -15.79167,-6.6147 -36.10566,-28.47035 -31.03313,-38.68255 a 21.19917,22.848494 0 0 0 1.97393,-8.2007 69.471544,74.876528 0 0 0 0.14355,-11.60477 147.44907,158.92083 0 0 0 -2.11748,-18.87708 c 0,0 49.30127,1.19918 46.43007,9.02594 -0.8374,2.29517 -0.9691,6.27947 -0.7417,10.74085 0.2273,4.46138 0.8253,9.50302 1.4475,13.77099 0.8613,5.85396 1.7228,10.31536 1.7228,10.31536 0,0 -3.0149,4.55164 -4.7855,4.79662 -1.7705,0.24499 9.6186,38.14099 -13.04004,28.71534 z"
       id="path552"
       inkscape:connector-curvature="0"
       style="fill:#cf6f80;stroke-width:1.24200833" />
    <path
       d="m 955.62868,990.72347 -0.37073,0.43841 c -14.73897,-19.21234 -32.56448,4.73216 -32.56448,4.73216 l -0.26324,-0.50286 0.90929,-10.88271 27.95851,-7.82676 3.95992,13.04892 z"
       id="path554"
       inkscape:connector-curvature="0"
       style="opacity:0.1;stroke-width:1.24200833" />
    <path
       d="m 1064.6514,976.68171 c 0,0 -10.7671,-0.24498 -16.5096,5.22215 -5.7424,5.46713 -33.4975,1.18627 -32.3012,0 a 3.9359631,4.2421866 0 0 0 0.6222,-1.95992 l 3.7683,-3.26223 44.1211,-1.40546 c 0.1676,0.86392 0.2992,1.40546 0.2992,1.40546 z"
       id="path556"
       inkscape:connector-curvature="0"
       style="opacity:0.1;stroke-width:1.24200833" />
    <path
       d="m 973.96862,825.80686 a 33.282217,35.87162 0 0 0 -1.81845,6.61472 70.237202,75.701756 0 0 0 -0.82538,18.77393 c 0.44258,9.02594 0,69.51254 0,69.51254 0,0 -9.4631,16.13063 -14.73896,21.81696 -5.27587,5.68634 10.76712,15.89854 10.76712,15.89854 2.39265,14.69937 -12.10707,31.30708 -12.10707,31.30708 -14.73883,-19.21234 -32.56434,4.74505 -32.56434,4.74505 0,0 -9.69042,-18.05185 -12.10706,-24.49894 -2.41651,-6.4471 9.4631,-10.90849 13.63841,-13.526 4.17517,-2.61752 -0.20347,-18.05186 -0.20347,-18.05186 0,0 -3.52912,-13.52601 -7.71636,-25.86574 -4.18724,-12.33973 4.61789,-73.76763 4.61789,-73.76763 0,0 0.45464,-10.90848 1.54327,-14.71225 a 22.826194,24.602105 0 0 0 0.32302,-8.35545 c -0.0718,-0.94126 -0.15561,-1.72781 -0.21539,-2.25647 -0.0596,-0.52866 -0.10844,-0.77365 -0.10844,-0.77365 l 0.16754,-0.30947 5.98169,-12.01738 c 0,0 48.23645,17.89713 45.3653,25.46602 z"
       id="path558"
       inkscape:connector-curvature="0"
       style="fill:#cc491d;stroke-width:1.24200833" />
    <path
       d="m 1064.6514,975.26334 c 0,0 -10.7671,-0.24498 -16.5096,5.15769 -5.7424,5.40266 -33.4975,1.18627 -32.3012,0 1.1964,-1.18626 1.1007,-9.96722 1.1007,-9.96722 -16.2823,-23.95739 -2.3927,-33.67959 -2.3927,-33.67959 0,0 -7.2738,-37.71549 -8.5897,-51.70569 -0.9212,-9.77379 -2.0577,-36.03924 -2.668,-51.03518 -0.2631,-6.4471 -0.4187,-10.88269 -0.4187,-10.88269 l 13.3033,-2.8883 1.7109,-0.37394 32.0858,-6.93705 c 0,0 0.8853,6.44708 1.4835,11.72081 a 50.820582,54.774495 0 0 1 0.5025,6.79522 c -0.2154,2.57883 0,10.65061 0,10.65061 l 1.0886,24.20238 a 25.505998,27.490401 0 0 0 -1.0886,7.82676 c 0.2154,3.08172 4.3905,47.20562 4.3905,47.20562 0,0 7.2618,26.32993 4.7853,28.22537 -2.4764,1.89544 3.5174,25.6852 3.5174,25.6852 z"
       id="path560"
       inkscape:connector-curvature="0"
       style="fill:#cc491d;stroke-width:1.24200833" />
    <path
       d="m 1011.3783,344.32513 c -0.8374,2.29517 -0.9691,6.27947 -0.7417,10.74085 a 40.974693,44.16258 0 0 1 -43.57089,-0.8768 147.44907,158.92083 0 0 0 -2.11748,-18.88999 c 0,0 49.30127,1.17338 46.43007,9.02594 z"
       id="path562"
       inkscape:connector-curvature="0"
       style="opacity:0.1;stroke-width:1.24200833" />
    <path
       d="m 1030.436,315.82898 a 40.520083,43.672602 0 0 1 -2.0098,13.68074 40.938802,44.123899 0 0 1 -79.84384,-12.62341 c 0,-0.36105 0,-0.69629 0,-1.05733 a 40.938802,44.123899 0 1 1 81.86554,0 z"
       id="path564"
       inkscape:connector-curvature="0"
       style="fill:#cf6f80;stroke-width:1.24200833" />
    <path
       d="m 995.98136,412.66429 c -15.79167,-6.6147 -36.10566,-28.47035 -31.03313,-38.68255 a 21.19917,22.848494 0 0 0 1.97393,-8.2007 l 21.61788,19.14787 13.37516,11.82396 10.1689,-27.90301 c 0.8613,5.85395 1.7228,10.31535 1.7228,10.31535 0,0 -3.0149,4.55164 -4.7855,4.79664 -1.7705,0.24498 9.6186,38.12809 -13.04004,28.70244 z"
       id="path566"
       inkscape:connector-curvature="0"
       style="opacity:0.1;stroke-width:1.24200833" />
    <polygon
       points="397.85,613.5 378.17,614.79 327.21,467.8 335.57,293.29 337.33,256.42 359.99,275.03 371.18,284.2 379.93,261.93 396.2,276.11 412.94,360 "
       id="polygon568"
       transform="matrix(1.1963414,0,0,1.2894184,557.86913,33.098201)"
       style="fill:#cc491d" />
    <path
       d="m 973.96862,825.80686 a 33.282217,35.87162 0 0 0 -1.81845,6.61472 173.4695,186.96567 0 0 1 -49.361,-16.62061 l -0.32302,-0.18051 0.10709,-2.07597 0.0596,-1.08311 5.98169,-12.01738 c 0,0 48.22452,17.79397 45.35337,25.36286 z"
       id="path570"
       inkscape:connector-curvature="0"
       style="opacity:0.1;stroke-width:1.24200833" />
    <path
       d="m 1016.4507,832.47315 a 121.1176,130.54072 0 0 1 -13.2315,1.62468 c -0.2632,-6.4471 -0.4187,-10.8827 -0.4187,-10.8827 l 13.3033,-2.8883 z"
       id="path572"
       inkscape:connector-curvature="0"
       style="opacity:0.1;stroke-width:1.24200833" />
    <path
       d="m 1051.384,824.73665 c -8.5061,2.38541 -21.6419,5.06741 -33.4019,3.39117 l -0.1675,-8.17492 32.0859,-6.93708 c 0,0 0.8853,6.38263 1.4835,11.72083 z"
       id="path574"
       inkscape:connector-curvature="0"
       style="opacity:0.1;stroke-width:1.24200833" />
    <path
       d="m 1017.7668,829.62354 c -49.05005,9.02593 -93.97264,-16.8527 -93.97264,-16.8527 l 0.43066,-8.76805 c 0,0 1.11262,-99.40126 -1.97406,-107.02172 -3.08655,-7.62047 -5.49113,-46.26434 -3.74452,-52.19566 1.74673,-5.93132 -6.37642,-94.87542 -6.37642,-94.87542 l -1.31595,-36.10371 -48.16475,-21.03041 21.53411,-48.37898 a 161.97267,174.57437 0 0 0 7.48918,-20.88858 c 3.74452,-12.55894 21.12731,-24.89868 21.12731,-24.89868 0,0 17.82551,-12.32683 24.87197,-11.86264 7.04646,0.46419 16.28224,-10.90849 16.28224,-10.90849 6.81913,-18.73523 12.99222,-10.25086 12.99222,-10.25086 0,0.88968 0,0 -0.33495,2.77224 -2.39278,20.56623 38.6897,85.55292 39.2759,86.7005 v 0 l 3.912,102.71507 3.9599,129.98627 z"
       id="path576"
       inkscape:connector-curvature="0"
       style="opacity:0.1;stroke-width:1.24200833" />
    <path
       d="m 1016.4507,829.62354 c -49.0499,9.02593 -93.98455,-16.8527 -93.98455,-16.8527 l 0.44272,-8.76805 c 0,0 1.11248,-99.40126 -1.98599,-107.02172 -3.09848,-7.62047 -5.49126,-46.26434 -3.73259,-52.19566 1.75866,-5.93132 -6.37642,-94.87542 -6.37642,-94.87542 l -1.32802,-36.10371 -48.1886,-21.10778 21.53411,-48.37897 a 164.5089,177.30793 0 0 0 7.48917,-20.88859 c 3.73246,-12.55893 21.12732,-24.89866 21.12732,-24.89866 0,0 17.82551,-12.32685 24.86004,-11.86266 7.03439,0.4642 16.2821,-10.90848 16.2821,-10.90848 6.8312,-18.73523 14.35616,-10.25087 14.35616,-10.25087 0,0.88969 -0.71775,1.28941 -0.33495,2.77225 5.2638,19.9473 37.3736,85.55292 37.9599,86.70049 v 0 l 3.9599,102.71508 3.9598,129.98628 z"
       id="path578"
       inkscape:connector-curvature="0"
       style="fill:#ffffff;stroke-width:1.24200833" />
    <path
       d="m 1003.2312,457.90999 c -5.27591,-2.37254 -33.22236,-36.76133 -33.22236,-36.76133 v -7.82676 c -1.01692,-2.57883 -7.05852,-1.00573 -11.96351,0.79944 l 2.10554,-47.54085 2.39279,2.14043 c 5.23994,19.93442 40.07734,88.04149 40.68754,89.18907 z"
       id="path580"
       inkscape:connector-curvature="0"
       style="opacity:0.1;stroke-width:1.24200833" />
    <path
       d="m 1004.5592,455.06038 c -5.28796,-2.37253 -33.23441,-36.76132 -33.23441,-36.76132 v -7.82677 c -1.01692,-2.57884 -7.05839,-1.00576 -11.96351,0.79943 l 2.11761,-47.54084 2.39265,2.14044 c 5.252,19.93439 40.10136,88.05437 40.68766,89.18906 z"
       id="path582"
       inkscape:connector-curvature="0"
       style="fill:#ffffff;stroke-width:1.24200833" />
    <path
       d="m 923.79416,626.56593 c 0.65798,0 34.10762,-3.7909 34.10762,-3.7909 0,0 20.25407,42.92474 18.9262,53.36904 -1.32802,10.44429 -3.7326,19.68942 -11.87975,18.05186 -8.14701,-1.63757 -43.84588,1.2894 -43.84588,1.2894 z"
       id="path584"
       inkscape:connector-curvature="0"
       style="opacity:0.1;stroke-width:1.24200833" />
    <path
       d="m 922.46615,623.71631 c 0.65797,0 34.10775,-3.7909 34.10775,-3.7909 0,0 20.24201,42.93764 18.92606,53.36903 -1.31595,10.4314 -3.74452,19.68942 -11.8796,18.05187 -8.13523,-1.63757 -43.84602,1.28942 -43.84602,1.28942 z"
       id="path586"
       inkscape:connector-curvature="0"
       style="fill:#ffffff;stroke-width:1.24200833" />
    <path
       d="m 947.67307,603.5627 c 0,0 30.69818,17.78108 31.35615,23.20953 0.65798,5.42845 -15.62426,-2.37253 -19.14146,-3.31381 a 43.798059,47.205608 0 0 0 -7.04645,-1.18626 l -23.46032,0.68339 z"
       id="path588"
       inkscape:connector-curvature="0"
       style="fill:#cf6f80;stroke-width:1.24200833" />
    <ellipse
       cx="994.66534"
       cy="456.64636"
       id="circle590"
       style="opacity:0.1;stroke-width:1.24200833"
       rx="3.2301219"
       ry="3.4814298" />
    <ellipse
       cx="994.66534"
       cy="455.228"
       id="circle592"
       style="fill:#3f3d56;stroke-width:1.24200833"
       rx="3.2301219"
       ry="3.4814298" />
    <ellipse
       cx="1000.6112"
       cy="607.35364"
       id="circle594"
       style="opacity:0.1;stroke-width:1.24200833"
       rx="3.2301219"
       ry="3.4814298" />
    <ellipse
       cx="1000.6112"
       cy="605.92236"
       id="circle596"
       style="fill:#3f3d56;stroke-width:1.24200833"
       rx="3.2301219"
       ry="3.4814298" />
    <ellipse
       cx="997.88342"
       cy="532.00006"
       id="circle598"
       style="opacity:0.1;stroke-width:1.24200833"
       rx="3.2301219"
       ry="3.4814298" />
    <ellipse
       cx="997.88342"
       cy="530.58167"
       id="circle600"
       style="fill:#3f3d56;stroke-width:1.24200833"
       rx="3.2301219"
       ry="3.4814298" />
    <path
       d="m 1072.3439,621.55009 c 0,0 2.2012,3.55879 0,5.22214 -2.2014,1.66335 0.2152,5.68633 0.2152,5.68633 0,0 -5.4911,3.46854 -3.0746,6.58892 2.4167,3.1204 0.8853,17.21375 0.8853,17.21375 l -6.6037,11.78528 c 0,0 0.3947,7.59468 0.4187,17.85845 0,16.01458 -0.8734,38.52783 -5.7065,48.79159 l 0.6699,84.21191 c 0,0 -23.1252,9.10332 -42.4821,6.33105 l -2.8713,-135.13106 c 0,0 4.1873,-76.63012 5.7305,-91.3295 a 141.98179,153.02818 0 0 0 1.1007,-23.01611 c 0,0 -0.658,-23.00322 -2.8713,-33.67962 0,0 -2.3926,-46.25143 -2.6319,-59.05534 -0.1084,-6.12475 0.1914,-23.9961 0.5264,-40.99063 0.3709,-18.58052 0.7896,-36.10371 0.7896,-36.10371 l -4.3666,-37.23841 c 0,0 4.3666,-0.47708 5.6825,1.41836 a 12.597475,13.577576 0 0 0 1.9142,1.58599 v 0 c 7.537,5.49293 34.1675,22.3843 34.1675,22.3843 0,0 14.739,6.31815 18.2681,15.36987 3.5293,9.05172 5.9818,15.47301 7.6925,18.05186 1.7108,2.57884 2.644,14.69936 2.644,14.69936 0,0 5.0725,22.30694 9.0323,26.08494 3.9599,3.77799 6.855,27.81275 6.855,27.81275 l -34.9929,29.65663 c 0,0 -3.0746,49.33315 -3.7326,51.24149 -0.6579,1.90833 12.7411,44.54941 12.7411,44.54941 z"
       id="path602"
       inkscape:connector-curvature="0"
       style="fill:#ffffff;stroke-width:1.24200833" />
    <path
       d="m 1073.6718,621.55009 c 0,0 2.1893,3.55879 0,5.22214 -2.1894,1.66335 0.2033,5.68633 0.2033,5.68633 0,0 -5.4552,3.50722 -3.0626,6.62762 2.3927,3.12039 0.8853,17.21374 0.8853,17.21374 l -6.6038,11.78527 c 0,0 0.3948,7.59469 0.4307,17.85845 0,16.01459 -0.8733,38.52783 -5.7066,48.7916 l 0.658,84.2119 c 0,0 -23.1612,9.10332 -42.494,6.33105 l -2.8593,-135.13104 c 0,0 4.1873,-76.63014 5.7305,-91.32952 a 140.66582,151.60982 0 0 0 1.0887,-23.0161 c 0,0 -0.658,-23.00322 -2.8593,-33.67962 0,0 -2.3926,-46.25143 -2.6439,-59.05535 -0.1085,-6.12475 0.2033,-23.9961 0.5263,-40.99063 0.3709,-18.58052 0.7896,-36.10372 0.7896,-36.10372 l -5.7663,-37.74127 c 0,0 5.7663,0 7.0943,1.92124 a 11.35328,12.236581 0 0 0 1.9142,1.58598 v 0 c 7.5369,5.49293 34.1794,22.3843 34.1794,22.3843 0,0 14.7269,6.31815 18.2562,15.36987 3.5293,9.05172 5.9817,15.47302 7.7044,18.05186 1.7228,2.57884 2.6319,14.69937 2.6319,14.69937 0,0 5.0726,22.30693 9.0325,26.08493 3.9599,3.778 6.8191,27.76119 6.8191,27.76119 l -34.993,29.65661 c 0,0 -3.0746,49.33315 -3.7445,51.2415 -0.6699,1.90834 12.7889,44.5623 12.7889,44.5623 z"
       id="path604"
       inkscape:connector-curvature="0"
       style="fill:#ffffff;stroke-width:1.24200833" />
    <path
       d="m 1031.7639,416.91938 3.1584,9.92852 -16.6292,18.05186 c 0.3709,-18.56763 0.7896,-36.10372 0.7896,-36.10372 l -5.7664,-37.74127 c 0,0 5.7664,0 7.0943,1.92123 a 10.910633,11.759496 0 0 0 1.9142,1.5731 v 0 l 14.1407,43.96915 z"
       id="path606"
       inkscape:connector-curvature="0"
       style="opacity:0.1;stroke-width:1.24200833" />
    <path
       d="m 1030.436,414.06976 3.1703,9.92854 -16.6291,18.05184 c 0.3709,-18.58051 0.7896,-36.1037 0.7896,-36.1037 l -5.7784,-37.74129 c 0,0 5.7784,0 7.0943,1.92124 a 11.963414,12.894184 0 0 0 1.9142,1.58598 v 0 l 14.1527,43.95628 z"
       id="path608"
       inkscape:connector-curvature="0"
       style="fill:#ffffff;stroke-width:1.24200833" />
    <path
       d="m 1030.436,315.82898 a 40.520083,43.672602 0 0 1 -2.0098,13.68074 1.7107681,1.8438683 0 0 1 -1.2921,-0.34816 c -0.3111,-11.60477 -5.6109,-22.50035 -12.131,-31.77127 a 30.973279,33.383043 0 0 0 -6.5798,-7.34969 12.872633,13.874143 0 0 0 -8.92474,-2.72067 c -3.58904,0.52867 -6.75936,3.15908 -10.38418,3.49432 -4.78544,0.42551 -9.06824,-3.14616 -13.81775,-3.32669 a 13.578475,14.6349 0 0 0 -10.15699,5.0803 27.86279,30.030555 0 0 0 -5.44328,10.8827 59.075337,63.671483 0 0 0 -3.03869,18.77393 c -0.0596,3.61037 -0.38294,8.13623 -3.49334,9.45143 a 17.87334,19.263912 0 0 0 -4.51026,-14.71225 l -0.0718,-0.0774 c 0,-0.36104 0,-0.69629 0,-1.05733 a 40.938802,44.123899 0 1 1 81.86573,0 z"
       id="path610"
       inkscape:connector-curvature="0"
       style="opacity:0.1;stroke-width:1.24200833" />
    <path
       d="m 1006.4613,245.77487 a 28.185803,30.378699 0 0 0 -19.88326,-1.67624 c -3.31386,1.05732 -6.4362,2.77225 -9.79791,3.63617 -7.17809,1.86964 -15.55256,-0.15475 -21.71372,4.37112 -3.4215,2.57884 -5.47919,6.6534 -7.39334,10.61191 l -4.7853,9.82537 c -2.60804,5.37688 -5.24007,10.84401 -6.3287,16.76244 -1.08863,5.91842 -0.43065,12.54604 3.05062,17.30399 2.53634,3.46854 6.28086,5.64765 9.03245,8.90989 a 17.945122,19.341277 0 0 1 4.4982,14.69937 c 3.12246,-1.28941 3.42149,-5.82818 3.49334,-9.43854 a 59.075337,63.671483 0 0 1 3.03869,-18.77394 27.767083,29.927402 0 0 1 5.44341,-10.88268 13.602402,14.660687 0 0 1 10.15686,-5.08032 c 4.78543,0.18051 9.0803,3.73931 13.81774,3.31381 3.58905,-0.32236 6.77129,-2.96566 10.38432,-3.48143 a 12.82478,13.822566 0 0 1 8.9247,2.72066 30.650266,33.0349 0 0 1 6.5679,7.34969 c 6.5321,9.27092 11.8318,20.14072 12.1429,31.77127 1.3519,1.07022 3.3018,-0.32236 3.9718,-1.97281 0.6699,-1.65045 0.6939,-3.58457 1.5433,-5.15767 0.981,-1.81808 2.8592,-2.78514 4.3308,-4.15193 3.7326,-3.46853 4.6657,-9.3096 4.5221,-14.6091 -0.1436,-5.29952 -1.1006,-10.67639 -0.1675,-15.88564 0.5623,-3.19775 1.8304,-6.18922 2.5243,-9.34829 0.6939,-3.15906 0.7777,-6.70498 -0.8614,-9.42564 -2.3927,-3.9972 -7.4293,-4.78375 -11.8198,-5.15767 -4.9888,-0.46419 -9.4511,0.12884 -12.6333,-4.39693 a 45.819875,49.384726 0 0 0 -5.0247,-6.6276 c -0.6341,-0.67051 -7.0345,-4.92558 -7.0345,-5.20926 z"
       id="path612"
       inkscape:connector-curvature="0"
       style="fill:#512e4e;stroke-width:1.24200833" />
    <path
       d="m 876.43095,517.68743 -12.5018,-24.91156 -3.95991,38.43757 c 0,0 2.20138,17.0719 1.75866,19.68942 -0.44258,2.61751 9.02039,26.08493 9.02039,26.08493 0,0 31.26045,60.00952 44.02535,63.10414 l 43.12814,-33.21542 -11.43703,-15.65355 c 0,0 -3.95991,-1.66334 -4.95284,0 0,0 -21.23508,-39.37885 -23.43633,-42.22845 -2.20124,-2.84961 -1.77059,-8.53594 -1.77059,-8.53594 0,0 -3.30194,-3.7909 -2.20125,-7.34969 1.10069,-3.55879 -6.37655,-15.89852 -6.37655,-15.89852 l 6.81927,-6.87262 z"
       id="path614"
       inkscape:connector-curvature="0"
       style="opacity:0.1;stroke-width:1.24200833" />
    <path
       d="m 864.58713,489.93916 -3.30181,2.83671 -3.95991,38.43757 c 0,0 2.20125,17.0719 1.75853,19.68942 -0.44258,2.61751 9.03245,26.08493 9.03245,26.08493 0,0 31.24839,60.00952 44.01343,63.10414 l 43.14006,-33.21542 -11.44896,-15.65355 c 0,0 -3.95991,-1.66334 -4.95298,0 0,0 -21.23494,-39.37885 -23.43632,-42.22845 -2.20125,-2.84961 -1.75853,-8.53594 -1.75853,-8.53594 0,0 -3.30194,-3.7909 -2.20125,-7.34969 1.10056,-3.55879 -6.38848,-15.89852 -6.38848,-15.89852 l 6.81913,-6.87262 z"
       id="path616"
       inkscape:connector-curvature="0"
       style="fill:#ffffff;stroke-width:1.24200833" />
    <path
       d="m 1069.4845,640.51743 c 2.3928,3.13329 0.8853,17.20083 0.8853,17.20083 l -6.6037,11.7853 c 0,0 0.3947,7.60757 0.4187,17.85845 l -11.1021,3.73932 a 6.591841,7.1046956 0 0 1 -8.5538,-7.00157 l 1.9142,-66.54687 25.9008,10.67638 c -2.2014,1.65046 0.2152,5.69924 0.2152,5.69924 0,0 -5.4911,3.45564 -3.0746,6.58892 z"
       id="path618"
       inkscape:connector-curvature="0"
       style="opacity:0.1;stroke-width:1.24200833" />
    <path
       d="m 1070.8125,639.08618 c 2.3927,3.13328 0.8853,17.21374 0.8853,17.21374 l -6.6038,11.78527 c 0,0 0.3948,7.59469 0.4307,17.85845 l -11.3055,3.8038 a 6.4602435,6.9628595 0 0 1 -8.3743,-6.85972 l 1.926,-66.75319 25.9128,10.67638 c -2.2132,1.65047 0.2035,5.68635 0.2035,5.68635 0,0 -5.4673,3.46852 -3.0747,6.58892 z"
       id="path620"
       inkscape:connector-curvature="0"
       style="fill:#ffffff;stroke-width:1.24200833" />
    <path
       d="m 1079.3903,607.36648 c 0,0 -1.7586,12.10764 -6.1611,12.81682 -4.4027,0.70919 -6.3766,19.58627 -10.7671,18.91578 -4.3906,-0.67052 -1.4835,-17.54899 -1.3281,-20.82412 0.1557,-3.27511 -4.7853,-16.8398 -1.0886,-19.92152 3.6967,-3.0817 15.397,0 15.397,0 z"
       id="path622"
       inkscape:connector-curvature="0"
       style="fill:#cf6f80;stroke-width:1.24200833" />
    <path
       d="m 1088.7576,514.12864 8.3026,-18.05186 c 0,0 3.302,13.75809 3.302,21.10778 0,7.34969 4.6179,8.07176 4.6179,8.07176 0,0 5.0604,6.44709 2.3926,11.14057 -2.6678,4.69349 -3.7445,16.37562 -3.7445,16.37562 0,0 0.8732,22.29405 -3.0866,25.37575 -3.9599,3.08172 -4.7854,10.44429 -4.7854,10.44429 0,0 -7.2738,13.9902 -7.0464,17.3169 0.2273,3.32669 -10.1211,25.85282 -10.1211,25.85282 0,0 5.0606,-27.99326 -24.4293,-40.088 0,0 -0.2273,-9.50301 1.9739,-12.10765 2.2013,-2.60462 5.6349,-3.79089 3.4815,-16.95586 -2.1534,-13.16495 -0.6221,-28.89586 -0.6221,-32.05493 0,-3.15908 6.6037,-22.8614 6.6037,-22.8614 z"
       id="path624"
       inkscape:connector-curvature="0"
       style="opacity:0.1;stroke-width:1.24200833" />
    <path
       d="m 1092.3466,493.49794 7.2498,2.57884 c 0,0 3.3139,13.75809 3.3139,21.10778 0,7.34969 4.6179,8.07176 4.6179,8.07176 0,0 5.0606,6.44709 2.3926,11.14057 -2.6678,4.69349 -3.7324,16.37562 -3.7324,16.37562 0,0 0.8732,22.29405 -3.0867,25.37575 -3.9598,3.08172 -4.8451,10.44429 -4.8451,10.44429 0,0 -7.2618,13.9902 -7.0345,17.3169 0.2273,3.32669 -10.133,25.85282 -10.133,25.85282 0,0 5.0725,-27.99326 -24.4293,-40.088 0,0 -0.2154,-9.50301 1.9859,-12.10765 2.2012,-2.60462 5.6348,-3.79089 3.4814,-16.95586 -2.1534,-13.16495 -0.6222,-28.89586 -0.6222,-32.05493 0,-3.15908 6.6039,-22.8614 6.6039,-22.8614 z"
       id="path626"
       inkscape:connector-curvature="0"
       style="fill:#ffffff;stroke-width:1.24200833" />
    <path
       d="m 932.21635,961.3892 c 0,0 11.55672,-7.82676 19.14146,-2.14043 7.58474,5.68634 -19.14146,2.14043 -19.14146,2.14043 z"
       id="path628"
       inkscape:connector-curvature="0"
       style="opacity:0.1;stroke-width:1.24200833" />
    <path
       d="m 1022.0137,937.18682 c 0,0 10.2288,-1.41836 18.8185,8.54885 8.5898,9.96721 -18.8185,-8.54885 -18.8185,-8.54885 z"
       id="path630"
       inkscape:connector-curvature="0"
       style="opacity:0.1;stroke-width:1.24200833" />
    <g
       id="g638"
       transform="matrix(1.1963414,0,0,1.2894184,557.86913,33.098201)"
       style="opacity:0.1">
      <path
         d="m 447.72,276.18 c -1.23,1.06 -2.81,1.82 -3.63,3.23 -0.7,1.21 -0.72,2.7 -1.28,4 -0.56,1.3 -2.19,2.36 -3.32,1.54 -0.26,-9 -4.7,-17.45 -10.15,-24.65 a 25.62,25.62 0 0 0 -5.49,-5.7 10.75,10.75 0 0 0 -7.47,-2.11 c -3,0.41 -5.64,2.45 -8.67,2.7 -4,0.34 -7.59,-2.43 -11.56,-2.57 a 11.32,11.32 0 0 0 -8.48,3.95 23.16,23.16 0 0 0 -4.55,8.43 49.44,49.44 0 0 0 -2.54,14.56 c -0.06,2.79 -0.32,6.27 -2.9,7.31 a 13.7,13.7 0 0 1 0,2.22 c 2.6,-1 2.86,-4.52 2.92,-7.32 a 49.38,49.38 0 0 1 2.54,-14.56 23.21,23.21 0 0 1 4.55,-8.44 11.35,11.35 0 0 1 8.48,-3.94 c 4,0.14 7.6,2.9 11.56,2.57 3,-0.25 5.66,-2.3 8.67,-2.7 a 10.75,10.75 0 0 1 7.47,2.11 25.62,25.62 0 0 1 5.49,5.7 c 5.45,7.19 9.89,15.62 10.15,24.64 1.13,0.83 2.76,-0.25 3.32,-1.53 0.56,-1.28 0.58,-2.78 1.28,-4 0.82,-1.41 2.4,-2.16 3.63,-3.22 3.12,-2.69 3.9,-7.22 3.78,-11.33 0,-0.13 0,-0.26 0,-0.38 -0.19,3.56 -1.14,7.19 -3.8,9.49 z"
         transform="translate(-47.24,-58.63)"
         id="path632"
         inkscape:connector-curvature="0" />
      <path
         d="m 373.9,275.47 c -2.3,-2.53 -5.44,-4.22 -7.55,-6.9 a 14.64,14.64 0 0 1 -2.91,-8.19 15.4,15.4 0 0 0 2.91,10.39 c 2.11,2.69 5.25,4.38 7.55,6.91 a 15,15 0 0 1 3.77,8.92 15,15 0 0 0 -3.77,-11.13 z"
         transform="translate(-47.24,-58.63)"
         id="path634"
         inkscape:connector-curvature="0" />
      <path
         d="m 453.47,245.28 c -0.59,2.45 -1.64,4.78 -2.12,7.25 a 23.1,23.1 0 0 0 -0.31,5 19.42,19.42 0 0 1 0.31,-2.84 c 0.48,-2.48 1.53,-4.8 2.12,-7.25 a 12.3,12.3 0 0 0 0.33,-4.14 13.9,13.9 0 0 1 -0.33,1.98 z"
         transform="translate(-47.24,-58.63)"
         id="path636"
         inkscape:connector-curvature="0" />
    </g>
    <ellipse
       cx="243.64478"
       cy="1010.3285"
       rx="121.90246"
       ry="19.438574"
       id="ellipse640"
       style="opacity:0.1;fill:#cc491d;stroke-width:1.24655843" />
    <rect
       x="238.64891"
       y="565.39075"
       width="9.7458696"
       height="203.28355"
       id="rect642"
       style="fill:#535461;stroke-width:1.49608564" />
    <path
       d="m 309.63675,768.05509 -0.6062,9.15834 -0.87038,12.95993 -0.35759,5.38556 -0.8548,12.95992 -0.37318,5.38558 -0.87039,12.95991 -9.82353,146.97996 a 26.890518,24.911848 0 0 1 -26.82841,23.3566 h -51.07641 a 26.874974,24.897449 0 0 1 -26.81281,-23.3566 l -9.77695,-147.08075 -0.87045,-12.95993 -0.3575,-5.38556 -0.87045,-12.95992 -0.3575,-5.38558 -0.87044,-12.95992 -0.62175,-9.15834 a 13.989286,12.959921 0 0 1 13.98929,-13.69432 h 104.46883 a 13.896025,12.873521 0 0 1 13.74062,13.79512 z"
       id="path644"
       inkscape:connector-curvature="0"
       style="fill:#3f3d56;stroke-width:1.49608564" />
    <polygon
       points="174.88,592.24 174.32,601.21 91.14,601.21 90.58,592.24 "
       id="polygon646"
       transform="matrix(1.5543651,0,0,1.4399913,37.203181,-75.606963)"
       style="fill:#9d9cb5" />
    <polygon
       points="174.09,604.95 173.54,613.93 91.93,613.93 91.37,604.95 "
       id="polygon648"
       transform="matrix(1.5543651,0,0,1.4399913,37.203181,-75.606963)"
       style="fill:#9d9cb5" />
    <polygon
       points="173.3,617.68 172.75,626.65 92.72,626.65 92.16,617.68 "
       id="polygon650"
       transform="matrix(1.5543651,0,0,1.4399913,37.203181,-75.606963)"
       style="fill:#9d9cb5" />
    <path
       d="m 163.12231,641.58067 c 56.74988,38.04456 80.4384,97.54501 80.4384,97.54501 0,0 -68.39208,-2.1744 -125.15749,-40.21897 -56.765419,-38.04456 -80.407309,-97.53059 -80.407309,-97.53059 0,0 68.360979,2.15998 125.126399,40.20455 z"
       id="path652"
       inkscape:connector-curvature="0"
       style="fill:#00ff00;stroke-width:1.49608564" />
    <path
       d="m 37.949281,601.37612 c 0,0 71.003399,36.50377 93.774849,66.72917 22.77144,30.22543 111.83658,71.02039 111.83658,71.02039"
       stroke-miterlimit="10"
       id="path654"
       inkscape:connector-curvature="0"
       style="fill:#00ff00;stroke:#535461;stroke-width:2.99217129;stroke-miterlimit:10" />
    <path
       d="m 199.75869,564.94433 c 30.88525,20.69267 43.80202,53.07807 43.80202,53.07807 0,0 -37.22704,-1.18078 -68.12783,-21.87346 -30.90079,-20.69267 -43.78647,-53.09247 -43.78647,-53.09247 0,0 37.2115,1.18079 68.11228,21.88786 z"
       id="path656"
       inkscape:connector-curvature="0"
       style="fill:#cc491d;stroke-width:1.49608564" />
    <path
       d="m 131.64641,543.05647 c 0,0 38.64152,19.87188 51.02981,36.31657 12.3883,16.4447 60.88449,38.64936 60.88449,38.64936"
       stroke-miterlimit="10"
       id="path658"
       inkscape:connector-curvature="0"
       style="fill:none;stroke:#535461;stroke-width:2.99217129;stroke-miterlimit:10" />
    <path
       d="m 288.40411,616.38082 c -35.48612,36.12938 -42.99369,83.34668 -42.99369,83.34668 0,0 50.035,-11.37593 85.49001,-47.51971 35.45514,-36.14377 42.99379,-83.34668 42.99379,-83.34668 0,0 -50.00393,11.39033 -85.49011,47.51971 z"
       id="path660"
       inkscape:connector-curvature="0"
       style="fill:#00ff00;stroke-width:1.49608564" />
    <path
       d="m 373.92526,568.87551 c 0,0 -46.22674,37.03657 -57.97784,62.55322 -11.75096,25.51665 -70.537,68.29877 -70.537,68.29877"
       stroke-miterlimit="10"
       id="path662"
       inkscape:connector-curvature="0"
       style="fill:none;stroke:#535461;stroke-width:2.99217129;stroke-miterlimit:10" />
    <path
       d="m 1753.8158,641.34266 c 0,0 -19.7516,-105.91284 -12.1907,-119.09069 0,0 0.2751,-12.24947 -0.1795,-27.86432 0,-0.59315 0,-1.18628 0,-1.7923 a 36.799462,39.662512 0 0 0 4.1513,2.57883 33.593266,36.206868 0 0 0 22.611,3.14618 l -5.9817,-7.18206 c -1.4357,-1.71493 -2.9312,-3.57169 -3.2423,-5.84106 -0.311,-2.26936 0.5504,-4.29377 1.2921,-6.31816 5.6826,-15.47301 5.9816,-34.93033 -4.9648,-46.74141 -9.2477,-9.92852 -11.4968,-22.74534 -21.5343,-31.80995 -7.3335,-6.6405 -11.365,-16.37561 -15.1694,-25.78836 -3.2182,-7.95573 -6.4602,-15.9759 -8.3027,-24.4087 -1.4356,-6.58893 -2.0098,-13.40996 -3.9837,-19.84414 -1.974,-6.4342 -5.6708,-12.68788 -11.449,-15.56329 -2.0577,-1.01864 -4.3427,-1.59888 -6.2209,-2.95277 -2.4645,-1.79229 -3.948,-4.70636 -5.7305,-7.25944 -9.0563,-12.89417 -39.3836,-5.29949 -53.7396,-0.0644 a 30.231546,32.583604 0 0 0 -10.6236,6.34393 l 0.1315,-0.23208 c 0.1071,-0.19343 0.2392,-0.38684 0.3589,-0.58025 a 18.878267,20.347023 0 0 0 -4.0197,4.83531 c -2.0936,3.5717 -2.967,7.73652 -4.7136,11.60477 -2.1056,4.57743 -13.8179,17.35557 -8.7811,22.50036 a 4.2470119,4.5774354 0 0 0 1.1964,0.82522 10.348353,11.153469 0 0 0 5.9816,0.64472 l -0.2154,0.55444 a 34.969058,37.689701 0 0 0 -2.5961,14.29965 c 0,21.18515 16.2106,38.3602 36.2253,38.3602 a 36.572156,39.417521 0 0 0 11.0902,-1.84388 c 0.084,0.48999 0.1554,0.97996 0.2392,1.46995 0,0.19341 0.06,0.38682 0.084,0.58024 v 0 l -0.634,0.95417 a 1.1963414,1.2894184 0 0 0 -0.1084,-0.16764 l -18.7827,28.28986 c -2.8711,2.17912 -19.4045,15.0733 -20.3377,24.74394 -0.9812,10.58611 -1.9622,22.97743 -1.9622,22.97743 l -0.1315,2.65621 a 7.3933898,7.968606 0 0 1 -5.9816,1.74071 c -5.8622,-1.03154 -5.8622,23.20952 -5.8622,23.20952 0,0 -3.9,3.86826 -6.5799,0.51578 -2.6797,-3.3525 -9.7621,8.0073 -9.7621,8.0073 l -44.3843,2.06305 v 0 l -1.0168,0.0644 -2.3928,-7.9815 a 3.122451,3.3653821 0 0 0 -3.9119,-2.15332 3.5890242,3.8682553 0 0 0 -0.5384,0.24498 l -0.1676,0.10305 -0.3109,0.23211 -0.1556,0.15473 a 2.3926829,2.5788369 0 0 0 -0.2393,0.27077 l -0.1435,0.18051 -0.072,0.0774 v 0 a 3.0147804,3.2493345 0 0 0 -0.4307,2.88832 l 2.0577,6.8468 c -8.5657,1.85677 -17.323,7.0918 -10.1808,21.50751 l -36.2013,-7.20785 11.7122,10.59901 60.4631,13.44863 c -0.8015,1.54731 -0.2752,3.7909 2.2251,6.94996 10.7671,13.62916 30.3871,17.3298 38.2829,18.28397 a 67.964155,73.251862 0 0 0 7.7644,14.18359 l -0.6819,13.57758 c 0,0 -19.9909,103.48872 -23.6517,108.73666 a 56.90996,61.337635 0 0 0 5.0605,-7.18206 c -5.8022,21.26251 -13.9135,50.36468 -16.043,54.72291 -3.4215,6.96287 -6.5918,35.13665 -2.6917,36.94183 1.1963,0.55447 4.6179,0.28368 9.4989,-0.11602 v 2.33384 l -0.2154,88.44121 c 0,0 0.9812,54.24584 -1.7107,59.41642 -2.6918,5.17055 -3.4095,16.01457 -3.4095,16.01457 0,0 -10.7671,21.39145 -19.2971,29.99186 a 1.2800853,1.3796778 0 0 1 -0.1914,0.1805 l -0.2631,-2.01147 c 0,0 -10.2527,13.95157 -32.9354,13.16497 0,0 -13.6502,9.5674 6.5919,10.0833 20.2421,0.5158 46.0951,-0.7737 46.0951,-0.7737 0,0 18.0528,-29.65663 33.1746,-25.78836 v 22.47456 h 4.6298 v -22.83561 a 18.985938,20.463071 0 0 0 8.2429,-13.44864 15.169609,16.349825 0 0 0 -5.4075,-15.12486 8.9725605,9.6706381 0 0 1 -2.955,-7.06601 l -0.1675,0.15473 c 0,-0.45131 -0.1085,-0.9155 -0.1555,-1.39257 -1.328,-11.60477 -2.9908,-35.54927 2.8831,-53.26589 8.0515,-24.29264 10.492,-58.12698 4.63,-78.26771 a 166.9614,179.95123 0 0 1 -4.6539,-19.61203 c -0.1435,-0.83813 -0.2751,-1.63756 -0.3948,-2.38543 a 94.331519,101.67064 0 0 1 11.8798,2.57883 c 13.5785,4.03588 43.2836,4.78373 68.6459,4.56453 0.06,0.74787 0.1315,1.53442 0.2154,2.32097 a 78.360361,84.456908 0 0 0 2.8233,16.14352 c 3.1823,10.31534 4.6419,55.79313 4.6419,55.79313 0,0 4.1035,37.39313 1.8663,52.60827 -1.1964,8.4586 -2.3928,16.95585 -3.0746,25.49181 v 0.16762 c 0,0 -6.7235,20.63069 -11.6404,31.83574 -0.1193,0.28368 -0.2513,0.56736 -0.3708,0.83812 a 15.552438,16.76244 0 0 0 -3.8404,0.91548 c 0,0 -6.5918,14.1836 -13.1597,16.5303 -6.5678,2.3468 -4.3906,10.0705 10.48,7.2337 14.8705,-2.8367 37.3257,-5.1577 37.3257,-5.1577 l 0.969,-14.4672 4.5701,-6.16349 -1.1964,14.42859 4.8692,-1.0316 -0.646,-17.54892 7.477,-10.08324 c 0,0 9.0324,-8.66489 -4.3906,-25.711 v 0.37392 c -0.1434,-0.24499 -0.2752,-0.50287 -0.4305,-0.74785 v -0.0774 c -2.2254,-3.71354 -3.9958,-10.6377 -0.7538,-22.92586 5.862,-22.20379 9.2717,-42.3574 9.2717,-42.3574 0,0 13.0879,-53.98795 -2.644,-79.53132 h 0.6939 a 39.862094,42.963423 0 0 1 -3.3857,-11.34689 q -0.1193,-0.69628 -0.2153,-1.43127 c 11.6404,-0.72205 23.0655,-2.99143 32.3849,-7.89121 -0.037,-0.0516 -5.6467,-128.16821 -10.2885,-148.5668 z m -147.784,-89.3567 v 0.25788 l -2.3927,0.12885 z m -8.2069,1.22495 a 2.6439145,2.8496148 0 0 0 -1.0767,0.55444 10.623511,11.450036 0 0 0 -1.8784,5.29952 l -3.7326,-0.90259 c 0,0 -2.62,-0.60604 -6.3883,-1.28941 l -1.7827,-1.93414 c 4.905,-0.43841 10.0015,-1.08311 14.8587,-1.72782 z"
       id="path664"
       style="fill:url(#ad14f186-b27f-416c-b629-0bafa2f1236e-208);stroke-width:1.24200833"
       inkscape:connector-curvature="0" />
    <polygon
       points="974.71,741.53 972.51,743.53 971.32,757.7 975.31,756.9 "
       id="polygon666"
       transform="matrix(1.1963414,0,0,1.2894184,557.86913,33.098201)"
       style="fill:#1d2366" />
    <path
       d="m 1612.4203,905.06742 c -5.7544,17.66502 -4.1275,41.50637 -2.8354,53.08534 0.4785,4.28087 0.9212,6.88551 0.9212,6.88551 0,0 -8.6016,21.12067 -9.3195,21.92011 -0.7179,0.79944 -25.3147,16.98162 -25.3147,16.98162 l -17.1914,10.8183 c 0,0 -17.4426,-8.2395 -9.0802,-11.0761 a 12.693182,13.68073 0 0 0 4.5102,-3.3139 c 8.3744,-8.5746 18.8902,-29.88869 18.8902,-29.88869 0,0 0.7178,-10.81822 3.3498,-15.96301 2.6319,-5.14477 1.6749,-59.21008 1.6749,-59.21008 l 0.2034,-88.13176 v -11.48872 l 32.7199,0.25788 a 74.041569,79.802107 0 0 0 1.4118,11.60477 164.60461,177.41109 0 0 0 4.558,19.54759 c 5.7665,20.10203 3.3737,53.76876 -4.4982,77.97114 z"
       id="path668"
       inkscape:connector-curvature="0"
       style="fill:#ffb0b1;stroke-width:1.24200833" />
    <path
       d="m 1610.5061,965.03827 c 0,0 -8.6016,21.12067 -9.3195,21.92011 -0.7179,0.79944 -25.3147,16.98162 -25.3147,16.98162 l -17.1914,10.8183 c 0,0 -17.4426,-8.2395 -9.0802,-11.0761 a 12.693182,13.68073 0 0 0 4.5102,-3.3139 l 0.7417,5.6348 5.7305,-0.2579 49.0501,-47.56664 c 0.4306,4.25507 0.8733,6.85971 0.8733,6.85971 z"
       id="path670"
       inkscape:connector-curvature="0"
       style="opacity:0.1;stroke-width:1.24200833" />
    <path
       d="m 1609.9079,959.37771 -49.3252,47.88899 -5.7305,0.2579 -1.1962,-9.02593 c 0,0 -10.0254,13.89993 -32.3013,13.12623 0,0 -13.3751,9.5289 6.4483,10.0447 19.8234,0.5157 45.138,-0.7737 45.138,-0.7737 0,0 17.6818,-29.65666 32.4807,-25.78839 v 22.39719 h 4.546 v -22.6035 a 18.890231,20.359916 0 0 0 8.0634,-13.40995 15.24139,16.427191 0 0 0 -5.2759,-15.06041 9.0084507,9.7093208 0 0 1 -2.8473,-7.05313 z"
       id="path672"
       inkscape:connector-curvature="0"
       style="fill:#1d2366;stroke-width:1.24200833" />
    <path
       d="m 1725.8692,932.60938 c -3.1823,12.24948 -1.4475,19.14788 0.7298,22.8485 v 0.0774 a 39.180181,42.228453 0 0 1 5.7186,15.04751 l 0.1912,1.16049 -22.4432,35.26552 -12.1787,5.1577 c 0,0 -19.5841,-7.2078 -16.007,-9.2709 0.8973,-0.5029 2.2969,-3.18484 3.9,-6.88546 4.7854,-11.15349 11.3892,-31.73259 11.3892,-31.73259 v -0.16763 c 0.6939,-8.49726 1.7944,-16.96874 3.0147,-25.40154 2.1893,-15.17646 -1.8303,-52.42775 -1.8303,-52.42775 0,0 -1.4356,-45.29728 -4.5462,-55.59972 a 78.874788,85.011357 0 0 1 -2.7873,-16.04043 c -0.6461,-6.44709 -0.7896,-11.7595 -0.7896,-11.7595 0,0 12.8964,-19.34126 36.536,1.5473 a 26.008461,28.031956 0 0 1 4.9411,5.7766 c 16.3299,25.04051 3.1822,80.20182 3.1822,80.20182 0,0 -3.29,20.06335 -9.0205,42.20266 z"
       id="path674"
       inkscape:connector-curvature="0"
       style="fill:#ffb0b1;stroke-width:1.24200833" />
    <path
       d="m 1732.5448,971.74325 -22.4433,35.26555 -12.1788,5.1577 c 0,0 -19.584,-7.2078 -16.0068,-9.2709 0.8972,-0.5029 2.2969,-3.18487 3.8999,-6.88549 8.2907,-0.0774 12.5856,8.43279 12.5856,8.43279 l 10.5037,-1.8052 c 0,0 13.8537,-29.34717 16.9641,-31.13945 3.1105,-1.79229 0.4786,-13.39706 0.4786,-13.39706 v -2.95277 c 0.084,0.10305 0.1555,0.21921 0.2512,0.32236 v 0.0774 a 39.180181,42.228453 0 0 1 5.7186,15.04751 z"
       id="path676"
       inkscape:connector-curvature="0"
       style="opacity:0.1;stroke-width:1.24200833" />
    <path
       d="m 1699.1191,1005.2037 c 0,0 -5.9817,-11.83692 -17.4426,-7.46578 0,0 -6.4483,14.18358 -12.8966,16.47878 -6.4482,2.2951 -4.2948,10.0317 10.2766,7.2079 14.5714,-2.8238 36.5361,-5.1578 36.5361,-5.1578 l 0.9572,-14.4285 14.8106,-20.33416 c 0,0 8.829,-8.62622 -4.3068,-25.60785 v 2.95275 c 0,0 2.6319,11.60477 -0.4786,13.39708 -3.1105,1.79229 -16.9162,31.15228 -16.9162,31.15228 z"
       id="path678"
       inkscape:connector-curvature="0"
       style="fill:#1d2366;stroke-width:1.24200833" />
    <path
       d="m 1610.9846,795.91815 a 74.041569,79.802107 0 0 0 1.4117,11.60477 c -13.4709,-2.12756 -25.9725,-1.07023 -34.1675,-0.37394 v -11.48872 z"
       id="path680"
       inkscape:connector-curvature="0"
       style="opacity:0.1;stroke-width:1.24200833" />
    <path
       d="m 1733.0353,813.41554 c 0,0 -19.1414,1.00575 -41.9675,1.21206 -0.646,-6.44708 -0.7896,-11.75948 -0.7896,-11.75948 0,0 12.8964,-19.3413 36.5361,1.54728 a 26.008461,28.031956 0 0 1 4.9409,5.77661 29.19073,31.46181 0 0 0 1.2801,3.22353 z"
       id="path682"
       inkscape:connector-curvature="0"
       style="opacity:0.1;stroke-width:1.24200833" />
    <path
       d="m 1733.0353,811.09461 c 0,0 -83.8394,4.37112 -109.3933,-3.3525 -25.554,-7.72363 -50.8805,-1.03154 -54.6969,-2.82383 -3.8163,-1.79228 -0.7177,-29.86294 2.6321,-36.81288 3.3496,-6.94997 21.7255,-77.23618 21.7255,-77.23618 l 17.6819,-99.36258 18.6271,-5.53161 1.316,-0.39973 32.4568,-9.64484 23.7832,-7.0789 c 0,0 47.2912,198.99593 43.2357,213.66953 a 34.861388,37.573654 0 0 0 -0.6939,17.26531 39.981729,43.092363 0 0 0 3.3258,11.30821 z"
       id="path684"
       inkscape:connector-curvature="0"
       style="fill:#1d2366;stroke-width:1.24200833" />
    <path
       d="m 1549.349,523.55429 c 0,0 -16.7487,19.34128 -4.0675,30.12081 12.6812,10.77954 21.0198,1.03153 21.0198,1.03153 z"
       id="path686"
       inkscape:connector-curvature="0"
       style="fill:#c7daf5;stroke-width:1.24200833" />
    <path
       d="m 1549.349,523.55429 c 0,0 -16.7487,19.34128 -4.0675,30.12081 12.6812,10.77954 21.0198,1.03153 21.0198,1.03153 z"
       id="path688"
       inkscape:connector-curvature="0"
       style="opacity:0.1;stroke-width:1.24200833" />
    <path
       d="m 1684.6673,396.39184 c 0,0 -1.962,2.01148 -4.9169,4.97716 -4.2111,4.24219 -10.4441,10.44428 -15.9712,15.64065 -7.6565,7.18205 -13.9732,12.45578 -11.7122,7.9557 2.2612,-4.50006 1.8304,-12.33974 0.7059,-19.67652 -0.084,-0.48998 -0.1555,-0.97996 -0.2393,-1.45705 a 125.37658,135.13105 0 0 0 -3.6966,-15.9372 c 0,0 12.3701,-17.22665 19.2133,-24.02187 2.5481,-2.57884 4.3306,-3.63616 4.4384,-1.84387 0.1193,2.41121 1.7944,7.73651 3.8761,13.38417 0.06,0.18051 0.1193,0.34813 0.1914,0.52864 1.3877,3.86827 2.9549,7.83968 4.3308,11.26953 2.1055,5.26082 3.7803,9.18066 3.7803,9.18066 z"
       id="path690"
       inkscape:connector-curvature="0"
       style="fill:#ffb0b1;stroke-width:1.24200833" />
    <path
       d="m 1676.5562,375.94165 a 35.507413,38.269939 0 0 1 -23.7833,29.34718 124.50325,134.18978 0 0 0 -3.9359,-17.39425 c 0,0 23.2927,-32.42887 23.6517,-25.86574 0.084,2.48857 1.9021,8.00729 4.0675,13.91281 z"
       id="path692"
       inkscape:connector-curvature="0"
       style="opacity:0.1;stroke-width:1.24200833" />
    <path
       d="m 1650.4521,413.95372 3.0147,-4.57744 c 0,0 1.9979,13.12628 9.3434,7.33681 7.3456,-5.78951 7.7044,43.56944 7.7044,43.56944 l -7.8839,127.04638 -56.9698,-3.67483 1.6151,-61.38921 6.4483,-30.94605 15.9472,-44.9878 9.4871,-14.867 z"
       id="path694"
       inkscape:connector-curvature="0"
       style="opacity:0.1;stroke-width:1.24200833" />
    <path
       d="m 1670.5146,461.06907 -7.1779,114.87429 -0.7538,12.1721 -31.7629,-2.05017 -1.1964,-0.0772 -23.9268,-1.54732 1.615,-61.40211 6.4485,-30.94603 15.9471,-44.98782 9.487,-14.86699 11.2935,-17.57477 3.0148,-4.56454 c 0,0 1.9979,13.12627 9.3434,7.33678 l 0.1555,-0.11602 v 0 c 7.1781,-4.89978 7.513,43.74997 7.513,43.74997 z"
       id="path696"
       inkscape:connector-curvature="0"
       style="fill:#1d2366;stroke-width:1.24200833" />
    <path
       d="m 1614.5618,481.33873 c 0,0 -2.8593,6.44708 -8.6019,5.40267 -5.7424,-1.04445 -5.7305,23.20952 -5.7305,23.20952 0,0 -3.8162,3.86826 -6.4482,0.51578 -2.6319,-3.35251 -9.5708,7.9815 -9.5708,7.9815 l -43.475,2.06307 c 0,0 19.3448,9.52878 15.5525,38.36019 0,0 65.6792,-4.38402 67.8327,-11.07611 2.1534,-6.69209 -9.5588,-66.45662 -9.5588,-66.45662 z"
       id="path698"
       inkscape:connector-curvature="0"
       style="fill:#ffffff;stroke-width:1.24200833" />
    <path
       d="m 1614.5618,481.33873 c 0,0 -2.8593,6.44708 -8.6019,5.40267 -5.7424,-1.04445 -5.7305,23.20952 -5.7305,23.20952 0,0 -3.8162,3.86826 -6.4482,0.51578 -2.6319,-3.35251 -9.5708,7.9815 -9.5708,7.9815 l -43.475,2.06307 c 0,0 19.3448,9.52878 15.5525,38.36019 0,0 65.6792,-4.38402 67.8327,-11.07611 2.1534,-6.69209 -9.5588,-66.45662 -9.5588,-66.45662 z"
       id="path700"
       inkscape:connector-curvature="0"
       style="opacity:0.02999998;stroke-width:1.24200833" />
    <polygon
       points="856.32,404.53 777.66,389.76 787.24,397.94 866.1,414.51 "
       id="polygon702"
       transform="matrix(1.1963414,0,0,1.2894184,557.86913,33.098201)"
       style="fill:#ffffff" />
    <path
       d="m 1650.6314,418.01538 c -1.5671,2.57884 -6.0534,15.78249 -9.7979,27.30989 -3.1225,9.60618 -5.7305,18.05186 -5.7305,18.05186 0,0 -6.0895,42.73133 -9.1999,50.45493 -3.1105,7.72362 -1.4237,37.84444 -1.4237,37.84444 l -11.5925,74.38656 c 0,0 -5.2521,38.36019 -13.3633,61.27315 -8.0035,22.55193 -16.9162,33.12515 -17.1914,33.46042 3.5891,-5.23505 23.1492,-108.31114 23.1492,-108.31114 l 6.4604,-129.99918 c 0,0 0.9451,-12.35264 1.9021,-22.91298 0.9571,-10.56032 20.3379,-24.97603 20.3379,-24.97603 l 18.6868,-28.63798 c 1.8783,2.70778 0.6222,7.42706 -2.2372,12.05606 z"
       id="path704"
       inkscape:connector-curvature="0"
       style="fill:#ffffff;stroke-width:1.24200833" />
    <path
       d="m 1601.9045,585.08534 c 0,0 -27.516,-1.28943 -40.8433,-18.54185 -13.3272,-17.25242 30.8058,-6.8855 30.8058,-6.8855 l 11.473,2.83673 z"
       id="path706"
       inkscape:connector-curvature="0"
       style="fill:#ffb0b1;stroke-width:1.24200833" />
    <path
       d="m 1730.4034,782.53397 a 34.861388,37.573654 0 0 0 -0.6939,17.26532 c -30.0162,2.29516 -62.1258,-6.4471 -62.1258,-6.4471 -5.9818,5.93132 -21.7376,14.67359 -21.7376,14.67359 l -8.5897,-114.75825 c -5.4913,-15.47302 -7.6447,-96.53874 -7.6447,-96.53874 0,0 0.4906,-4.2422 1.1964,-10.59903 0,-0.15473 0,-0.32235 0.06,-0.47709 2.1415,-17.75527 6.3885,-51.08675 8.4701,-55.58682 2.8712,-6.1892 -8.829,-22.65508 -8.829,-22.65508 l 5.3237,-48.93343 0.646,-5.90554 c 11.2217,-5.40267 19.8235,-22.65508 19.8235,-22.65508 l 6.6037,-12.46868 v 0 c 7.1781,-4.96426 7.549,43.68549 7.549,43.68549 l -7.1781,114.87429 23.7832,-7.07889 c 0,0 47.399,198.93147 43.3434,213.60504 z"
       id="path708"
       inkscape:connector-curvature="0"
       style="opacity:0.1;stroke-width:1.24200833" />
    <path
       d="m 1761.2092,790.4639 c -32.72,17.51031 -92.19,1.28941 -92.19,1.28941 -5.9817,5.93134 -21.7374,14.67358 -21.7374,14.67358 L 1638.68,691.66865 c -5.4792,-15.47302 -7.6326,-96.53874 -7.6326,-96.53874 0,0 6.9148,-60.48663 9.7861,-66.66294 0.8373,-1.80518 0.4306,-4.48718 -0.5624,-7.37548 a 86.59119,93.328106 0 0 1 -5.24,-43.18262 l 2.297,-21.03041 0.6341,-5.89264 c 11.2337,-5.41557 19.8354,-22.66798 19.8354,-22.66798 l 5.9816,-11.29531 11.0064,-20.81121 5.216,-9.85115 0.8854,0.8639 6.7592,6.60183 c 0,0 2.8713,2.57884 7.1781,6.44709 9.3672,8.51017 25.5538,23.4932 33.9042,32.66097 7.3455,8.07176 9.6663,39.4691 10.3364,63.10414 0.4426,15.56328 0.1794,27.76118 0.1794,27.76118 -7.4054,13.13917 11.9634,118.62648 11.9634,118.62648 4.5103,20.38571 10.0015,148.03814 10.0015,148.03814 z"
       id="path710"
       inkscape:connector-curvature="0"
       style="fill:#ffffff;stroke-width:1.24200833" />
    <path
       d="m 1698.4014,428.05995 c 0,0 -22.4553,46.07092 -19.8473,63.58123 2.6079,17.5103 10.0252,37.32866 6.4483,41.95767 a 13.219573,14.248073 0 0 1 -10.5159,5.66056 c -3.589,0.25788 -13.1598,7.46573 -13.1598,8.23938 0,0.77365 -8.8409,0.77365 -16.7487,4.38402 -7.9079,3.61037 -19.5842,5.66055 -19.5842,5.66055 0,0 -22.7305,-0.77366 -24.8481,1.54731 -2.1175,2.32094 -4.2949,16.20798 0.2394,27.28408 4.5341,11.07611 9.5707,19.34128 13.3752,20.8499 3.8043,1.50862 27.9464,-7.20786 47.5306,-9.27093 19.584,-2.06306 40.8429,-18.78681 40.8429,-18.78681 0,0 23.4124,-9.02594 27.516,-24.2024 4.1033,-15.17645 -5.0128,-98.58893 -5.0128,-98.58893 0,0 -6.8908,-38.87596 -26.2356,-28.31563 z"
       id="path712"
       inkscape:connector-curvature="0"
       style="opacity:0.02999998;stroke-width:1.24200833" />
    <path
       d="m 1695.5301,424.1917 c 0,0 -22.4553,46.08382 -19.8233,63.58122 2.6319,17.49741 10.0252,37.32867 6.4362,41.97057 a 13.159756,14.183603 0 0 1 -10.5038,5.66056 c -3.5889,0.25788 -13.1598,7.46572 -13.1598,8.23937 0,0.77365 -8.8409,0.77365 -16.7487,4.37113 -7.9079,3.59748 -19.5842,5.66055 -19.5842,5.66055 0,0 -22.7305,-0.77365 -24.8361,1.5473 -2.1055,2.32096 -4.3069,16.22089 0.2393,27.2841 4.5462,11.06321 9.5707,19.34127 13.3752,20.8499 3.8043,1.5086 27.9465,-7.20786 47.5306,-9.25803 19.5841,-2.05018 40.843,-18.79972 40.843,-18.79972 0,0 23.4005,-9.02593 27.4561,-24.18949 4.0555,-15.16356 -5.0127,-98.60183 -5.0127,-98.60183 0,0 -6.867,-38.86307 -26.2118,-28.31563 z"
       id="path714"
       inkscape:connector-curvature="0"
       style="opacity:0.02999998;stroke-width:1.24200833" />
    <path
       d="m 1697.6955,425.73901 c 0,0 -22.4552,46.08381 -19.8233,63.58123 2.6319,17.49739 10.0253,37.32865 6.4482,41.95765 a 13.159756,14.183603 0 0 1 -10.5158,5.67344 c -3.589,0.2579 -13.1597,7.46574 -13.1597,8.22649 0,0.76077 -8.829,0.77367 -16.7489,4.38404 -7.9198,3.61037 -19.584,5.66054 -19.584,5.66054 0,0 -22.7306,-0.77365 -24.8482,1.5473 -2.1174,2.32097 -4.2948,16.22087 0.2393,27.28409 4.5342,11.06321 9.5707,19.34129 13.3752,20.8499 3.8043,1.50863 27.9466,-7.20785 47.5306,-9.27091 19.5842,-2.06307 40.8431,-18.78684 40.8431,-18.78684 0,0 23.4123,-9.02592 27.5158,-24.20238 4.1033,-15.17645 -4.9528,-98.58893 -4.9528,-98.58893 0,0 -6.9867,-38.81149 -26.3195,-28.31562 z"
       id="path716"
       inkscape:connector-curvature="0"
       style="fill:#ffffff;stroke-width:1.24200833" />
    <path
       d="m 1697.205,549.34266 c 0,0 -17.945,-3.86826 -11.7003,2.57883 6.2449,6.4471 6.209,12.09474 13.8537,11.83686 7.6445,-0.25787 -2.1534,-14.41569 -2.1534,-14.41569 z"
       id="path718"
       inkscape:connector-curvature="0"
       style="opacity:0.1;stroke-width:1.24200833" />
    <path
       d="m 1727.5321,688.05829 c 0,0 -8.111,5.91844 7.4055,19.56048 15.5165,13.64204 -7.4055,-19.56048 -7.4055,-19.56048 z"
       id="path720"
       inkscape:connector-curvature="0"
       style="opacity:0.1;stroke-width:1.24200833" />
    <path
       d="m 1712.0516,736.70804 c 0,0.77366 -2.8713,28.36721 7.8718,35.26561 10.7431,6.89837 -7.8718,-35.26561 -7.8718,-35.26561 z"
       id="path722"
       inkscape:connector-curvature="0"
       style="opacity:0.1;stroke-width:1.24200833" />
    <path
       d="m 1541.4772,520.44679 c -8.6616,0.32236 -27.3724,3.17196 -17.67,22.68087 8.5778,17.2653 22.9937,5.72502 31.1049,-3.03013 a 30.566522,32.94464 0 0 0 -13.4349,-19.65074 z"
       id="path724"
       inkscape:connector-curvature="0"
       style="fill:#ffb0b1;stroke-width:1.24200833" />
    <path
       d="M 1555.7973,539.0273 Z"
       id="path726"
       inkscape:connector-curvature="0"
       style="fill:#ffb0b1;stroke-width:1.24200833" />
    <path
       d="m 1555.0198,539.94279 0.3589,-0.39973 z"
       id="path728"
       inkscape:connector-curvature="0"
       style="fill:#ffb0b1;stroke-width:1.24200833" />
    <path
       d="m 1694.8243,401.05953 c -9.188,6.76945 -16.8924,12.48156 -18.3997,13.66784 -4.1154,3.28801 -11.9634,22.59061 -17.024,32.44176 -4.0316,7.92993 -17.1316,9.96721 -22.0725,10.47008 l 0.6341,-5.89264 c 11.2337,-5.41555 19.8354,-22.66798 19.8354,-22.66798 l 22.204,-41.95768 7.6446,7.49152 c 0,0 2.8713,2.57885 7.1781,6.4471 z"
       id="path730"
       inkscape:connector-curvature="0"
       style="opacity:0.1;stroke-width:1.24200833" />
    <path
       d="m 1694.8243,400.28588 c -9.188,6.76945 -16.8924,12.48158 -18.3997,13.68073 -4.1154,3.27512 -11.9634,22.57772 -17.024,32.42887 -4.0316,7.92993 -17.1316,9.96721 -22.0725,10.47009 l 0.6341,-5.89265 c 11.2337,-5.41555 19.8354,-22.66798 19.8354,-22.66798 l 22.204,-41.95768 7.6446,7.46574 c 0,0 2.8713,2.55305 7.1781,6.47288 z"
       id="path732"
       inkscape:connector-curvature="0"
       style="fill:#dce7ff;stroke-width:1.24200833" />
    <path
       d="m 1677.1423,367.4315 a 35.423668,38.179679 0 0 1 -6.2448,21.67512 35.483485,38.244151 0 1 1 6.2448,-21.67512 z"
       id="path734"
       inkscape:connector-curvature="0"
       style="fill:#ffb0b1;stroke-width:1.24200833" />
    <path
       d="m 1739.0649,496.05098 a 31.535559,33.989069 0 0 1 -11.449,-13.25521 c -1.9979,-4.25508 -3.3258,-9.16777 -6.7355,-12.18501 -3.0746,-2.70777 -7.1779,-3.36538 -11.0062,-4.57743 -12.5854,-4.01008 -23.1372,-16.38852 -23.532,-30.52053 -0.1914,-6.65341 1.7346,-13.29391 0.8614,-19.88284 a 20.433511,22.023267 0 0 0 -3.9958,-10.25088 32.743864,35.291383 0 0 0 -3.4574,-4.01008 c -1.6749,-1.70204 -3.4334,-3.35249 -4.9648,-5.15768 a 18.579182,20.024668 0 0 1 -2.5123,-3.67484 16.401841,17.677926 0 0 1 -1.3758,-3.41696 c -2.3927,-7.89123 -0.2153,-17.25243 -2.8472,-25.23392 l -0.1437,-0.4384 c -0.993,-2.83672 -3.0147,-5.67344 -5.8261,-5.89265 -2.8115,-0.2192 -5.2161,2.29517 -7.8958,3.41697 -5.611,2.34674 -11.6644,-1.65046 -16.3422,-5.72502 -4.6777,-4.07456 -9.9535,-8.72936 -15.8993,-7.82677 -3.9359,0.60602 -7.0465,3.49433 -10.6715,4.99005 a 14.954266,16.117731 0 0 1 -2.5242,0.78654 35.471522,38.231258 0 0 1 68.3948,14.24808 35.11262,37.844431 0 0 1 -0.7775,7.9815 c 0.06,0.18051 0.1193,0.34814 0.1914,0.52867 1.3877,3.86825 2.9549,7.83965 4.3308,11.2695 l 6.7592,6.60183 c 0,0 2.8713,2.57884 7.1781,6.44709 9.3672,8.51017 25.5538,23.4932 33.9042,32.66097 7.3455,8.09755 9.6425,39.48199 10.3364,63.11702 z"
       id="path736"
       inkscape:connector-curvature="0"
       style="opacity:0.1;stroke-width:1.24200833" />
    <path
       d="m 1610.853,328.8521 c 1.7108,-3.7522 2.5603,-7.95571 4.606,-11.5145 3.0028,-5.15769 8.2429,-8.45859 13.6264,-10.45718 14.057,-5.22215 43.7621,-12.80394 52.6389,0 1.7467,2.57883 3.1943,5.44134 5.6109,7.22073 1.8423,1.35389 4.0676,1.93413 6.0893,2.95277 5.6587,2.86252 9.2716,9.10329 11.1977,15.47302 1.9261,6.36973 2.5004,13.20365 3.912,19.7668 1.8066,8.41989 4.9767,16.40139 8.1353,24.33131 3.7205,9.36118 7.6685,19.07051 14.8464,25.68522 9.7982,9.02593 11.9635,21.80406 21.0558,31.7068 10.7669,11.75949 10.4199,31.16524 4.869,46.57379 -0.7298,2.02439 -1.5552,4.13903 -1.2681,6.29237 0.2871,2.15333 1.7705,4.11324 3.1702,5.82817 l 5.8861,7.15627 c -13.9253,3.62327 -29.6812,-4.21641 -36.1654,-17.9745 -1.9979,-4.25506 -3.3258,-9.15487 -6.7474,-12.18499 -3.0626,-2.70779 -7.178,-3.35249 -10.9943,-4.56455 -12.5856,-4.02298 -23.1372,-16.4143 -23.5321,-30.54633 -0.1914,-6.6405 1.7347,-13.28101 0.8615,-19.85703 a 20.337804,21.920114 0 0 0 -4.0078,-10.31535 c -3.2898,-4.62902 -8.2547,-7.73652 -10.9345,-12.89419 -4.5341,-8.6262 -1.0887,-19.83125 -4.3548,-29.08929 -1.0048,-2.83672 -3.0147,-5.67344 -5.826,-5.89264 -2.8115,-0.21919 -5.2161,2.29518 -7.9079,3.41696 -5.5989,2.34675 -11.6523,-1.63756 -16.3301,-5.72501 -4.6777,-4.08745 -9.9536,-8.72936 -15.9112,-7.81388 -3.9361,0.59314 -7.0346,3.48144 -10.6596,4.99005 -2.6797,1.1089 -8.1111,2.10175 -10.456,-0.33525 -4.9529,-4.91268 6.5201,-17.63924 8.5897,-22.22957 z"
       id="path738"
       inkscape:connector-curvature="0"
       style="fill:#591d4b;stroke-width:1.24200833" />
    <path
       d="m 1732.3894,477.63811 c -2.01,-4.25509 -3.3259,-9.15489 -6.7474,-12.17212 -3.0627,-2.70778 -7.1781,-3.36538 -11.0064,-4.57745 -12.5735,-4.01008 -23.1252,-16.40138 -23.532,-30.53343 -0.1914,-6.64049 1.7347,-13.29389 0.8734,-19.86993 a 20.457438,22.049055 0 0 0 -4.0078,-10.25087 c -3.3019,-4.62902 -8.2667,-7.73652 -10.9345,-12.89419 -4.5341,-8.61331 -1.0886,-19.81835 -4.3667,-29.08929 -0.9929,-2.82381 -3.0147,-5.66053 -5.8141,-5.89264 -2.7995,-0.23208 -5.2281,2.30807 -7.9079,3.42988 -5.5988,2.34673 -11.6642,-1.65048 -16.33,-5.72504 -4.6657,-4.07456 -9.9656,-8.72936 -15.9114,-7.82677 -3.9359,0.60604 -7.0464,3.49433 -10.6593,4.99005 -2.6799,1.1089 -8.1232,2.11465 -10.4682,-0.32235 -4.9289,-5.15767 6.544,-17.85845 8.6019,-22.423 1.7107,-3.76509 2.5601,-7.9557 4.6177,-11.51449 0.1085,-0.19341 0.2274,-0.38684 0.3471,-0.58025 a 18.997901,20.475964 0 0 0 -3.936,4.82244 c -2.0457,3.55878 -2.8952,7.73651 -4.606,11.51451 -2.0696,4.56453 -13.5427,17.30398 -8.6016,22.42298 2.3926,2.44988 7.7761,1.44415 10.456,0.33525 3.5891,-1.50862 6.7235,-4.39693 10.6594,-4.99005 5.9817,-0.91549 11.2456,3.73931 15.9114,7.81387 4.6657,4.07457 10.767,8.07177 16.342,5.72502 2.6797,-1.1218 5.0245,-3.64905 7.8958,-3.41696 2.8712,0.2321 4.7855,3.05592 5.8262,5.89264 3.266,9.25804 -0.1794,20.46307 4.3547,29.08928 2.6797,5.06742 7.6446,8.23939 10.9345,12.89419 a 20.337804,21.920114 0 0 1 4.0077,10.31534 c 0.8734,6.57604 -1.0527,13.21653 -0.8613,19.85705 0.3948,14.1836 10.9465,26.52333 23.5319,30.54632 3.7924,1.21205 7.9318,1.85677 10.9945,4.56453 3.4334,3.03015 4.7853,7.92993 6.7472,12.18502 6.4842,13.75809 22.24,21.59777 36.1655,17.9745 l -2.7755,-3.3783 c -12.0711,0.19343 -24.2858,-7.20784 -29.8008,-18.91574 z"
       id="path740"
       inkscape:connector-curvature="0"
       style="opacity:0.1;stroke-width:1.24200833" />
    <path
       d="m 1649.9137,418.78904 c -1.5673,2.57883 -6.0536,15.78248 -9.7981,27.30988 -3.5053,-1.46993 -6.6875,-10.84401 -6.6875,-10.84401 l 18.6868,-28.65087 c 1.9141,2.83672 0.658,7.54309 -2.2012,12.185 z"
       id="path742"
       inkscape:connector-curvature="0"
       style="opacity:0.1;stroke-width:1.24200833" />
    <path
       d="m 1650.6314,418.01538 c -1.5671,2.57884 -6.0534,15.78249 -9.7979,27.30989 -3.5054,-1.45703 -6.6877,-10.84401 -6.6877,-10.84401 l 18.687,-28.63799 c 1.9141,2.82383 0.658,7.54311 -2.2014,12.17211 z"
       id="path744"
       inkscape:connector-curvature="0"
       style="fill:#dce7ff;stroke-width:1.24200833" />
    <path
       d="m 1541.9797,549.74237 -10.3604,-35.21402 a 3.0506706,3.288017 0 0 1 1.9859,-4.13903 v 0 a 3.0626339,3.3009112 0 0 1 3.8283,2.14044 l 10.3603,35.17534 -1.0288,7.36257 z"
       id="path746"
       inkscape:connector-curvature="0"
       style="fill:#be8b87;stroke-width:1.24200833" />
    <path
       d="m 1532.6003,511.43375 v 0 a 3.0626339,3.3009112 0 0 1 3.8403,2.14044 l 10.3603,35.17532 -0.7777,5.51872 0.7537,0.85101 1.0289,-7.36257 -10.4202,-35.17533 a 3.0626339,3.3009112 0 0 0 -3.8282,-2.14044 v 0 a 3.0626339,3.3009112 0 0 0 -1.5912,1.28941 4.1632681,4.4871761 0 0 1 0.6341,-0.29656 z"
       id="path748"
       inkscape:connector-curvature="0"
       style="opacity:0.1;fill:#ffffff;stroke-width:1.24200833" />
    <polygon
       points="827.46,399.14 826.75,403.82 826.6,404.85 825.18,403.37 822.6,400.68 "
       id="polygon750"
       transform="matrix(1.1963414,0,0,1.2894184,557.86913,33.098201)"
       style="fill:#efc8c4" />
    <path
       d="m 1545.0662,553.21091 a 1.1963414,1.2894184 0 0 1 0.3709,-0.33524 0.52639021,0.56734412 0 0 1 0.5623,0 1.4834633,1.5988789 0 0 1 0.2033,0.34813 1.0288536,1.1088999 0 0 0 0.7417,0.52867 l -0.1794,1.28941 z"
       id="path752"
       inkscape:connector-curvature="0"
       style="fill:#727a9c;stroke-width:1.24200833" />
    <path
       d="m 1531.5594,527.03571 c 0,0 20.7805,-0.12885 15.8875,9.39987 -4.893,9.52881 -12.5377,10.67637 -12.5377,10.67637 z"
       id="path754"
       inkscape:connector-curvature="0"
       style="fill:#ffb0b1;stroke-width:1.24200833" />
    <path
       d="m 1402.3187,99.40009 h -0.8972 c -35.6989,0 -67.2703,20.35992 -85.4307,50.40337 -18.1605,-30.04345 -49.732,-50.40337 -85.4308,-50.40337 h -0.8973 a 101.68902,109.60057 0 0 0 -100.72,109.53611 c 0,35.85871 14.5715,86.73916 42.9846,128.60658 54.1344,79.77631 144.0635,149.57254 144.0635,149.57254 0,0 89.9289,-69.78331 144.0513,-149.57254 28.4251,-41.86742 42.9846,-92.74787 42.9846,-128.60658 A 101.68902,109.60057 0 0 0 1402.3187,99.40009 Z m -12.8367,244.28032 a 20.158353,21.726702 0 0 1 -18.7467,-13.9515 h -21.3428 a 6.7473654,7.27232 0 0 1 -6.3525,-4.95137 l -6.5559,-21.28829 -20.7447,78.12585 a 6.7114753,7.2336373 0 0 1 -6.4363,5.22215 h -0.4187 a 6.6277312,7.1433781 0 0 1 -6.221,-5.9829 l -21.3786,-138.58669 -15.6241,82.007 a 6.6636215,7.1820607 0 0 1 -6.4723,5.45425 h -30.064 a 6.6875484,7.2078492 0 1 1 0,-14.4028 h 24.8001 l 22.1323,-110.25816 a 6.7114753,7.2336373 0 0 1 13.1598,0.59312 l 21.8332,141.37184 18.5912,-69.89938 a 6.5798776,7.0918014 0 0 1 6.2568,-5.15767 h 0.1315 a 6.675585,7.1949548 0 0 1 6.3406,4.95137 l 11.8558,38.43756 h 16.2463 a 20.050681,21.610653 0 1 1 19.0458,28.36719 z"
       id="path756"
       inkscape:connector-curvature="0"
       style="fill:#cc491d;stroke-width:1.24200833" />
    <path
       style="fill:#009e60;fill-opacity:1;stroke-width:0.50738639"
       d="m 231.81278,731.62706 c -51.50861,-25.36126 -85.0714,-47.43445 -99.42071,-65.38585 -4.78248,-5.98303 -12.97159,-13.91998 -21.03341,-20.38567 -14.539749,-11.66114 -41.532479,-29.15067 -62.369549,-40.41139 -3.11923,-1.68568 -5.55319,-3.17432 -5.4088,-3.30807 0.35225,-0.32633 8.84382,0.64694 18.26622,2.09362 40.392019,6.20157 78.165049,20.88183 106.645309,41.44705 26.65947,19.25045 49.73531,46.00018 67.02811,77.6995 5.32649,9.76398 6.84144,12.94988 6.14949,12.9322 -0.20237,-0.007 -4.63787,-2.1118 -9.85666,-4.68139 z"
       id="path766"
       inkscape:connector-curvature="0" />
    <path
       style="fill:#009e60;fill-opacity:1;stroke-width:0.50738639"
       d="m 231.33833,737.93714 c -0.86979,-0.10333 -5.85136,-0.83995 -11.07017,-1.63704 -41.14051,-6.28352 -78.5824,-20.79768 -107.41401,-41.63852 -27.625029,-19.96864 -51.147149,-47.7311 -68.686529,-81.06861 -2.51522,-4.78075 -4.44011,-8.8155 -4.27752,-8.96612 0.44322,-0.4106 18.56286,9.84537 31.72134,17.95472 28.443859,17.52949 47.535419,32.55656 58.001299,45.65307 9.37094,11.7264 22.08641,21.81401 46.11112,36.58157 16.35553,10.05345 31.9311,18.56985 53.59225,29.30313 8.08896,4.00814 8.27442,4.1345 5.97586,4.07107 -1.3047,-0.036 -3.08383,-0.15001 -3.95364,-0.25327 z"
       id="path1573"
       inkscape:connector-curvature="0" />
    <path
       style="fill:#009e60;fill-opacity:1;stroke-width:0.50738639"
       d="m 246.36216,696.18766 c 0,-0.3602 0.81427,-3.62018 1.8095,-7.24439 7.50558,-27.33227 21.57911,-52.77322 39.47986,-71.36818 15.11987,-15.70624 35.51641,-29.20375 59.34408,-39.27108 6.67274,-2.81932 19.89961,-7.541 21.12447,-7.541 0.29157,0 -4.95041,4.9996 -11.64876,11.11022 -22.64348,20.65667 -34.83323,34.67691 -41.61062,47.85889 -1.48471,2.88779 -3.99122,7.05433 -5.57015,9.25897 -8.71647,12.1716 -26.22262,28.96823 -49.41527,47.41271 -11.51052,9.15398 -13.51311,10.60391 -13.51311,9.78386 z"
       id="path1575"
       inkscape:connector-curvature="0" />
    <path
       style="fill:#009e60;fill-opacity:1;stroke-width:0.50738639"
       d="m 252.68035,696.38882 c 2.5963,-1.89007 12.49252,-9.77702 18.72146,-14.92036 8.50894,-7.02595 25.28215,-22.59634 30.74739,-28.54241 7.31743,-7.96117 11.29672,-13.28572 14.68745,-19.65267 6.82144,-12.80888 14.43275,-22.35922 30.64979,-38.45791 7.3158,-7.26254 24.80717,-22.80368 25.22711,-22.41455 0.78987,0.73167 -5.21012,19.7852 -9.17261,29.12891 -17.82388,42.02862 -46.39306,69.77339 -91.61196,88.96796 -5.78866,2.45718 -19.27403,7.24262 -20.3855,7.23401 -0.3853,-0.003 0.12634,-0.60733 1.13687,-1.34298 z"
       id="path1577"
       inkscape:connector-curvature="0" />
    <path
       style="fill:#009e60;fill-opacity:1;stroke-width:0.50738639"
       d="m 230.28404,616.37027 c -15.52372,-2.57494 -31.08552,-7.51887 -43.22643,-13.73287 -17.87216,-9.1474 -32.55929,-22.53302 -44.71652,-40.75392 -3.39395,-5.08675 -9.57737,-16.02697 -9.05845,-16.02697 0.57453,0 12.99093,7.19674 18.98296,11.00283 13.65911,8.67612 22.75387,16.02936 29.05874,23.49441 3.99934,4.73525 7.9653,8.21183 14.98972,13.14005 8.60106,6.03439 21.97447,13.76799 37.39647,21.62577 4.51601,2.30096 4.01276,2.48466 -3.42649,1.2507 z"
       id="path1579"
       inkscape:connector-curvature="0" />
    <path
       style="fill:#009e60;fill-opacity:1;stroke-width:0.50738639"
       d="m 235.81914,612.46405 c -16.15688,-7.95458 -33.2962,-18.12903 -42.40714,-25.17417 -3.24408,-2.50856 -6.89418,-6.01138 -10.02957,-9.62491 -4.88248,-5.62707 -11.12422,-11.11111 -19.07078,-16.75575 -4.984,-3.54027 -17.95419,-11.64784 -23.36226,-14.6036 -4.43573,-2.42433 -4.13663,-2.7641 1.7013,-1.93265 10.79814,1.53789 24.57638,5.18077 34.60736,9.15 25.27352,10.00066 44.66165,26.96832 59.81477,52.34738 2.89838,4.8543 5.13178,9.33603 4.6476,9.32624 -0.20141,-0.004 -2.85699,-1.23372 -5.90128,-2.73254 z"
       id="path1581"
       inkscape:connector-curvature="0" />
  </g>
</svg>
